<?xml version="1.0" standalone="no"?>
<!DOCTYPE svg PUBLIC "-//W3C//DTD SVG 1.1//EN" "http://www.w3.org/Graphics/SVG/1.1/DTD/svg11.dtd" >
<svg xmlns="http://www.w3.org/2000/svg" xmlns:xlink="http://www.w3.org/1999/xlink" version="1.1">
<metadata></metadata>
<defs>
<font id="space_monobold" horiz-adv-x="1315" >
<font-face units-per-em="2048" ascent="1638" descent="-410" />
<missing-glyph horiz-adv-x="500" />
<glyph unicode="&#xfb01;" d="M51 808v259h252v219q0 93 62.5 156.5t155.5 63.5h201v-259h-90q-58 0 -58 -65v-115h592v-1067h-271v808h-321v-808h-271v808h-252zM825 1385q0 41 16.5 79t44.5 64.5t64.5 42.5t79.5 16q84 0 143.5 -59t59.5 -143q0 -43 -16.5 -80t-43 -64.5t-64.5 -44t-79 -16.5 q-43 0 -79.5 16.5t-64.5 44t-44.5 64.5t-16.5 80z" />
<glyph unicode="&#xfb02;" d="M51 808v259h252v219q0 93 62.5 156.5t155.5 63.5h645v-1506h-271v1247h-263q-58 0 -58 -65v-115h218v-259h-218v-808h-271v808h-252z" />
<glyph horiz-adv-x="0" />
<glyph horiz-adv-x="682" />
<glyph />
<glyph />
<glyph unicode=" " />
<glyph unicode="!" d="M454 174q0 43 16 81t44 64.5t64.5 42.5t79.5 16q41 0 78.5 -16t66 -42.5t44 -64.5t15.5 -81t-15.5 -80.5t-44 -64.5t-66 -43t-78.5 -16q-43 0 -79.5 16t-64.5 43t-44 64.5t-16 80.5zM517 456v1050h283v-1050h-283z" />
<glyph unicode="&#x22;" d="M211 1334q0 40 16 77.5t44 65t64.5 43t79.5 15.5q41 0 78.5 -15.5t65.5 -43t44.5 -65t16.5 -77.5q0 -62 -34 -113t-85 -74v-269h-172v269q-52 24 -85 73.5t-33 113.5zM697 1334q0 40 16 77.5t44 65t64.5 43t79.5 15.5q41 0 78.5 -15.5t65.5 -43t44.5 -65t16.5 -77.5 q0 -62 -34 -113t-85 -74v-269h-172v269q-52 24 -85 73.5t-33 113.5z" />
<glyph unicode="#" d="M125 439v232h219v164h-219v232h219v244h232v-244h164v244h232v-244h220v-232h-220v-164h220v-232h-220v-246h-232v246h-164v-246h-232v246h-219zM576 671h164v164h-164v-164z" />
<glyph unicode="$" d="M224 572v43h244v-30q0 -49 19.5 -86t66.5 -58v232q-148 26 -233 97t-85 206v13q0 74 26 128.5t69 94.5t101 63.5t122 33.5v136h207v-142q146 -30 226 -120.5t80 -214.5v-30h-246v30q0 26 -13.5 50.5t-46.5 41.5v-194q331 -45 331 -316v-12q0 -144 -87 -234.5t-244 -110.5 v-133h-207v140q-88 14 -150 50t-102 85.5t-59 110.5t-19 126zM482 989q0 -30 12.5 -50.5t59.5 -37.5v170q-38 -13 -55 -35.5t-17 -46.5zM761 433q50 14 68 42t18 58q0 33 -15 60t-71 43v-203z" />
<glyph unicode="%" d="M69 1209q0 77 28 136t74 101t105 63.5t122 21.5q62 0 121.5 -21.5t105.5 -63.5t74 -101t28 -136q0 -78 -28 -137t-74 -101t-105.5 -63.5t-121.5 -21.5t-121.5 21.5t-105.5 63.5t-74 101t-28 137zM105 576l1015 520l89 -167l-1016 -521zM262 1209q0 -70 41 -106t95 -36 t94.5 36t40.5 106q0 69 -40.5 105t-94.5 36t-95 -36t-41 -105zM589 297q0 78 28 136.5t74 100.5t105.5 64t121.5 22t121.5 -22t106 -64t74 -100.5t27.5 -136.5t-27.5 -137t-74 -101t-105.5 -63.5t-122 -21.5q-62 0 -121.5 21.5t-105.5 63.5t-74 101t-28 137zM782 297 q0 -69 41 -106t95 -37q53 0 94.5 37t41.5 106t-41 105.5t-95 36.5t-95 -37t-41 -105z" />
<glyph unicode="&#x26;" d="M90 394v25q0 129 72 208t182 108v39q-109 30 -181.5 107.5t-72.5 206.5v26q0 84 29 156t85 123.5t140 82t192 30.5h234v-259h-206q-90 0 -146.5 -42t-56.5 -130v-12q0 -91 56.5 -132t146.5 -41h238v177h271v-177h197v-270h-197v-620h-537q-108 0 -192 30t-140 83t-85 125 t-29 156zM361 439q0 -90 56.5 -135.5t146.5 -45.5h238v374h-238q-90 0 -146.5 -45t-56.5 -135v-13z" />
<glyph unicode="'" d="M454 1334q0 40 16 77.5t44 65t64.5 43t79.5 15.5q41 0 78.5 -15.5t64 -43t43 -65t16.5 -77.5q0 -62 -33 -113t-85 -74v-269h-168v269q-53 24 -86.5 73.5t-33.5 113.5z" />
<glyph unicode="(" d="M349 468v568q0 211 63.5 364t170.5 250.5t250 144t302 46.5h90v-271h-76q-112 0 -207 -30t-164.5 -96.5t-109.5 -171t-40 -252.5v-534q0 -148 40 -252.5t109.5 -171t164 -96.5t207.5 -30h76v-271h-90q-160 0 -302.5 46t-249.5 144t-170.5 250.5t-63.5 362.5z" />
<glyph unicode=")" d="M90 -64h78q111 0 205.5 30t165 96.5t110 171t39.5 252.5v534q0 148 -39.5 252.5t-110 171t-165 96.5t-205.5 30h-78v271h91q159 0 302 -46.5t250.5 -144t171 -250.5t63.5 -364v-568q0 -211 -63.5 -363t-171 -250t-250.5 -144t-302 -46h-91v271z" />
<glyph unicode="*" d="M125 649v207h228l156 -60l16 35l-160 70l-156 157l144 144l156 -157l72 -159l34 15l-61 157v228h207v-228l-60 -157l34 -15l71 159l158 157l144 -144l-158 -157l-158 -70l14 -35l158 60h228v-207h-228l-158 61l-14 -35l158 -71l158 -157l-144 -144l-158 157l-71 160 l-34 -16l60 -157v-228h-207v228l61 157l-34 16l-72 -160l-156 -157l-144 144l156 157l160 71l-16 35l-156 -61h-228z" />
<glyph unicode="+" d="M209 630v246h327v326h244v-326h328v-246h-328v-327h-244v327h-327z" />
<glyph unicode="," d="M454 174q0 41 16 78.5t44 64.5t64.5 43t79.5 16q41 0 78.5 -16t66 -43t44 -64.5t15.5 -78.5v-262q0 -82 -54.5 -137.5t-136.5 -55.5h-138v167h103q58 0 59 65v25q-17 -6 -37 -6q-43 0 -79.5 16t-64.5 44t-44 64.5t-16 79.5z" />
<glyph unicode="-" d="M322 468v246h671v-246h-671z" />
<glyph unicode="." d="M454 174q0 43 16 81t44 64.5t64.5 42.5t79.5 16q41 0 78.5 -16t66 -42.5t44 -64.5t15.5 -81t-15.5 -80.5t-44 -64.5t-66 -43t-78.5 -16q-43 0 -79.5 16t-64.5 43t-44 64.5t-16 80.5z" />
<glyph unicode="/" d="M213 -191l645 1965l246 -77l-644 -1966z" />
<glyph unicode="0" d="M103 585v336q0 293 147.5 453.5t407.5 160.5q261 0 408 -161t147 -453v-336q0 -301 -147.5 -458t-407.5 -157t-407.5 157t-147.5 458zM387 568q0 -76 13 -138t45.5 -107.5t84 -70t128.5 -24.5q78 0 129.5 24.5t83.5 70t45 107.5t13 138v370q0 71 -15 133t-47 107 t-84 72.5t-125 27.5t-124.5 -27.5t-84 -72.5t-47.5 -107t-15 -133v-370zM478 753q0 73 53.5 126.5t126.5 53.5q74 0 127.5 -54t53.5 -126q0 -74 -54 -127.5t-127 -53.5t-126.5 53.5t-53.5 127.5z" />
<glyph unicode="1" d="M117 847v26l180 633h555v-1235h373v-271h-1083v271h426v1092h-39l-142 -516h-270z" />
<glyph unicode="2" d="M127 890v121q0 105 38 200.5t107.5 167.5t170.5 114t228 42q135 0 236.5 -40t169 -104t101 -149t33.5 -175v-26q0 -189 -106.5 -314t-347.5 -181q-101 -24 -166.5 -48t-102 -54.5t-51 -66t-14.5 -80.5v-26h775v-271h-1058v297q0 119 35.5 202.5t101 141.5t158 95.5 t208.5 63.5q86 19 141 43.5t87 56t44 69t12 85.5q0 90 -65.5 150t-182.5 60q-123 0 -195.5 -74t-72.5 -205v-95h-284z" />
<glyph unicode="3" d="M125 482v90h283v-77q0 -103 67 -179t200 -76q115 0 175.5 58.5t60.5 153.5q0 100 -65.5 146.5t-166.5 46.5h-168v447l375 104v39h-748v271h980v-474l-400 -116v-38h52q79 0 156.5 -25.5t136.5 -77t96 -127.5t37 -180v-25q0 -101 -33.5 -187t-99 -149.5t-162.5 -100 t-222 -36.5q-127 0 -230 40.5t-174.5 111.5t-110.5 163.5t-39 196.5z" />
<glyph unicode="4" d="M82 284v391l417 831h537v-952h220v-270h-220v-284h-283v284h-671zM327 554h426v809h-39l-387 -770v-39z" />
<glyph unicode="5" d="M117 478v51h283v-26q0 -115 70 -189t205 -74q136 0 214.5 73.5t78.5 203.5q0 122 -58 183t-153 61q-62 0 -101 -26.5t-49 -63.5h-465v835h1007v-271h-723v-410h38q31 84 113.5 145.5t222.5 61.5q105 0 189 -36.5t142.5 -100.5t89.5 -155t31 -198v-13q0 -114 -38 -215 t-110 -177.5t-177.5 -121.5t-242.5 -45q-138 0 -243.5 37.5t-177.5 105.5t-109 161.5t-37 203.5z" />
<glyph unicode="6" d="M123 466v549q0 119 43 215.5t116 164.5t168.5 104t203.5 36q107 0 200.5 -31t163.5 -90.5t110 -144.5t40 -190h-284q0 76 -55 130.5t-171 54.5t-184 -67.5t-68 -176.5v-195h39q37 76 118.5 122t185.5 46q92 0 173.5 -33t142 -94.5t95 -149.5t34.5 -199v-27 q0 -114 -38 -209.5t-107.5 -164.5t-169 -107.5t-221.5 -38.5q-111 0 -209 36.5t-170 102t-114 157t-42 200.5zM406 482q0 -109 71.5 -175.5t180.5 -66.5q110 0 180.5 66t70.5 176q0 109 -70.5 174.5t-180.5 65.5q-109 0 -180.5 -65.5t-71.5 -174.5z" />
<glyph unicode="7" d="M129 1235v271h1057v-443l-543 -796q-43 -64 -68 -111t-25 -105v-51h-305v64q0 43 6.5 77.5t20.5 69t37.5 73t58.5 90.5l561 822v39h-800z" />
<glyph unicode="8" d="M109 392v12q0 80 22.5 140t60.5 103t85 71.5t99 42.5v39q-45 17 -86.5 45t-73 67.5t-50 95t-18.5 123.5v13q0 93 43 166t114 123.5t162.5 76t190.5 25.5t190.5 -25.5t162.5 -76t114 -123.5t43 -166v-13q0 -69 -18.5 -124t-49.5 -94.5t-73 -67.5t-87 -45v-39 q51 -14 98.5 -42.5t85 -71.5t60 -103t22.5 -140v-12q0 -95 -38.5 -172.5t-109.5 -132t-173 -86t-227 -31.5q-127 0 -228 31.5t-172 87t-110 132t-39 171.5zM394 443q0 -88 68.5 -145.5t195.5 -57.5t196 57.5t69 145.5t-69 145t-196 57t-195.5 -57t-68.5 -145zM433 1090 q0 -76 64.5 -125t160.5 -49q97 0 161.5 49.5t64.5 124.5q0 76 -64.5 125t-161.5 49q-96 0 -160.5 -49t-64.5 -125z" />
<glyph unicode="9" d="M123 1002v26q0 107 38.5 201t108.5 161.5t170 106t223 38.5q111 0 209 -36t169 -102t112 -157t41 -202v-548q0 -122 -41 -219t-112 -163.5t-167 -102t-207 -35.5q-109 0 -204 31.5t-165 90t-110 142.5t-40 192h285q0 -75 54.5 -130.5t170.5 -55.5q117 0 184 68t67 178 v193h-39q-30 -75 -98 -121.5t-196 -46.5q-96 0 -179 36t-144.5 100.5t-95.5 154.5t-34 200zM406 1024q0 -109 71 -175.5t181 -66.5t180.5 66t70.5 176q0 109 -70.5 174.5t-180.5 65.5q-109 0 -180.5 -65.5t-71.5 -174.5z" />
<glyph unicode=":" d="M454 174q0 43 16 81t44 64.5t64.5 42.5t79.5 16q41 0 78.5 -16t66 -42.5t44 -64.5t15.5 -81t-15.5 -80.5t-44 -64.5t-66 -43t-78.5 -16q-43 0 -79.5 16t-64.5 43t-44 64.5t-16 80.5zM454 892q0 44 16 81.5t44 64.5t64.5 42.5t79.5 15.5q41 0 78.5 -15.5t66 -42.5 t44 -64.5t15.5 -81.5q0 -43 -15.5 -80.5t-44 -64.5t-66 -43t-78.5 -16q-43 0 -79.5 16t-64.5 43t-44 64.5t-16 80.5z" />
<glyph unicode=";" d="M454 174q0 43 16 81t44 64.5t64.5 42.5t79.5 16q41 0 78.5 -16t66 -42.5t44 -64.5t15.5 -81v-262q0 -82 -54.5 -137.5t-136.5 -55.5h-138v167h103q58 0 59 65v25q-17 -6 -37 -6q-43 0 -79.5 16t-64.5 43t-44 64.5t-16 80.5zM454 892q0 44 16 81.5t44 64.5t64.5 42.5 t79.5 15.5q41 0 78.5 -15.5t66 -42.5t44 -64.5t15.5 -81.5q0 -43 -15.5 -80.5t-44 -64.5t-66 -43t-78.5 -16q-43 0 -79.5 16t-64.5 43t-44 64.5t-16 80.5z" />
<glyph unicode="&#x3c;" d="M209 529v447l899 249v-257l-732 -196v-39l732 -195v-259z" />
<glyph unicode="=" d="M209 443v245h899v-245h-899zM209 817v246h899v-246h-899z" />
<glyph unicode="&#x3e;" d="M209 279v259l731 195v39l-731 196v257l899 -249v-447z" />
<glyph unicode="?" d="M142 921v115q0 97 35.5 187.5t103.5 159t167.5 110.5t226.5 42q115 0 209.5 -37t162 -104t103.5 -156t36 -193v-13q0 -88 -26.5 -167.5t-76 -139.5t-122.5 -97t-163 -37q-30 0 -45.5 -17.5t-15.5 -46.5v-71h-271v184q0 84 57.5 141.5t141.5 57.5h41q92 0 144.5 57.5 t52.5 152.5q0 90 -62.5 152.5t-169.5 62.5q-58 0 -103 -20.5t-77.5 -55.5t-48.5 -81.5t-16 -95.5v-90h-284zM400 174q0 43 16.5 81t44 64.5t64.5 42.5t79 16q41 0 78.5 -16t65.5 -42.5t44 -64.5t16 -81t-16 -80.5t-44 -64.5t-65.5 -43t-78.5 -16q-43 0 -79.5 16t-64 43 t-44 64.5t-16.5 80.5z" />
<glyph unicode="@" d="M30 449v13q0 123 29 213t77.5 149.5t114 88.5t141.5 29q82 0 126 -31t63 -76h39v76h258v-636q0 -60 58 -60h12q58 0 58 60v564q0 258 -257 257h-620v258h675q211 0 335.5 -111.5t124.5 -335.5v-731q0 -90 -56.5 -148t-147.5 -58h-264q-82 0 -120 35.5t-44 84.5h-39 q-19 -49 -69 -84.5t-146 -35.5q-76 0 -139 29t-109 88t-73 149.5t-27 212.5zM288 449q0 -103 43 -168.5t125 -65.5q88 0 126 65.5t38 168.5v13q0 103 -38 169t-126 66q-82 0 -125 -65.5t-43 -169.5v-13z" />
<glyph unicode="A" d="M33 0l359 1506h533l359 -1506h-297l-73 322h-512l-73 -322h-296zM462 593h390l-175 770h-39z" />
<glyph unicode="B" d="M99 0v271h141v964h-141v271h660q107 0 190 -30.5t140.5 -82t86 -123.5t28.5 -156v-26q0 -129 -72 -206.5t-182 -107.5v-39q109 -30 181.5 -108.5t72.5 -207.5v-25q0 -84 -28.5 -156t-86 -125t-140.5 -83t-190 -30h-660zM525 271h206q90 0 146 39t56 129v13q0 90 -56 129 t-146 39h-206v-349zM525 890h206q90 0 146 38t56 128v13q0 90 -56 128t-146 38h-206v-345z" />
<glyph unicode="C" d="M103 585v336q0 144 39 259t112 193t176 120t233 42q133 0 236 -38.5t172.5 -112t105.5 -176t36 -232.5v-38h-284v38q0 54 -13 107.5t-43 96.5t-81.5 70.5t-128.5 27.5q-72 0 -123.5 -27.5t-86 -73.5t-50.5 -107t-16 -128v-378q0 -74 15 -135t47.5 -106.5t85 -70 t128.5 -24.5q81 0 133.5 24.5t81.5 66.5t40 97t11 113v39h284v-39q0 -269 -141 -414t-409 -145q-259 0 -409.5 157t-150.5 458z" />
<glyph unicode="D" d="M99 0v273h141v962h-141v271h546q279 0 415 -130.5t136 -403.5v-439q0 -273 -135.5 -403t-415.5 -130h-546zM525 271h120q148 0 207 70t59 218v413q0 129 -58.5 196t-207.5 67h-120v-964z" />
<glyph unicode="E" d="M176 0v1506h951v-271h-667v-345h641v-270h-641v-349h693v-271h-977z" />
<glyph unicode="F" d="M189 0v1506h964v-271h-679v-345h665v-270h-665v-620h-285z" />
<glyph unicode="G" d="M94 576v353q0 146 42 259t116.5 190t177.5 117t228 40q130 0 230.5 -42t171.5 -116t107.5 -173.5t36.5 -214.5v-25h-283v25q0 136 -70.5 205.5t-196.5 69.5q-121 0 -198.5 -80t-77.5 -277v-318q0 -349 285 -349q127 0 192.5 68t65.5 182h-362v271h645v-761h-258v168h-39 q-26 -84 -99 -141t-219 -57q-103 0 -193 38.5t-157 115t-106 189.5t-39 263z" />
<glyph unicode="H" d="M131 0v1506h284v-616h486v616h283v-1506h-283v620h-486v-620h-284z" />
<glyph unicode="I" d="M154 0v271h363v964h-363v271h1007v-271h-361v-964h361v-271h-1007z" />
<glyph unicode="J" d="M131 452v141h284v-141q0 -101 56 -158.5t157 -57.5q94 0 146.5 56.5t52.5 159.5v787h-154v267h568v-267h-129v-787q0 -235 -127 -358.5t-349 -123.5q-114 0 -206 31.5t-158.5 92t-103.5 150t-37 208.5z" />
<glyph unicode="K" d="M166 0v1506h283v-618h62l398 618h321v-14l-465 -720v-39l491 -720v-13h-333l-412 617h-62v-617h-283z" />
<glyph unicode="L" d="M176 0v1506h284v-1235h684v-271h-968z" />
<glyph unicode="M" d="M47 0v1506h499l86 -1132v-220h52v220l86 1132h498v-1506h-257v1006l25 344h-51l-112 -1350h-426l-116 1350h-52l27 -344v-1006h-259z" />
<glyph unicode="N" d="M131 0v1506h555l176 -1364h39v1364h283v-1506h-554l-176 1363h-39v-1363h-284z" />
<glyph unicode="O" d="M103 585v336q0 293 147.5 453.5t407.5 160.5q261 0 408 -161t147 -453v-336q0 -301 -147.5 -458t-407.5 -157t-407.5 157t-147.5 458zM387 568q0 -76 13 -138t45.5 -107.5t84 -70t128.5 -24.5q78 0 129.5 24.5t83.5 70t45 107.5t13 138v370q0 71 -15 133t-47 107 t-84 72.5t-125 27.5t-124.5 -27.5t-84 -72.5t-47.5 -107t-15 -133v-370z" />
<glyph unicode="P" d="M154 0v1506h590q117 0 202.5 -38t143 -99.5t86 -139.5t28.5 -160v-52q0 -84 -28.5 -164.5t-86 -144t-143.5 -102t-202 -38.5h-305v-568h-285zM439 839h277q95 0 150 51.5t55 133.5v25q0 82 -55 134t-150 52h-277v-396z" />
<glyph unicode="Q" d="M103 585v336q0 293 147.5 453.5t407.5 160.5q261 0 408 -161t147 -453v-336q0 -261 -111 -413.5t-308 -188.5v-39q0 -60 53 -61h134v-257h-254q-89 0 -146.5 59t-57.5 147v151q-200 37 -310 189t-110 413zM387 572q0 -75 13 -138.5t45.5 -109t84 -71t128.5 -25.5 q78 0 129.5 25.5t83.5 71t45 109t13 138.5v361q0 72 -15 134t-47 109t-84 74.5t-125 27.5t-124.5 -27.5t-84 -74.5t-47.5 -109.5t-15 -133.5v-361z" />
<glyph unicode="R" d="M158 0v1506h575q116 0 204.5 -32.5t147.5 -89.5t90 -132.5t31 -161.5v-52q0 -92 -49 -172.5t-153 -123.5v-38q75 -9 119.5 -59t44.5 -124v-521h-284v452q0 51 -26.5 83.5t-89.5 32.5h-327v-568h-283zM441 839h271q103 0 157 48.5t54 136.5v25q0 76 -54 131t-157 55h-271 v-396z" />
<glyph unicode="S" d="M78 521v64h283v-52q0 -135 79 -216t244 -81q129 0 191.5 56.5t62.5 133.5q0 37 -13.5 70t-45.5 60t-88 48.5t-142 35.5q-115 19 -209 50.5t-163.5 83t-108.5 129.5t-39 189v14q0 92 38 170t105.5 136.5t163 90.5t213.5 32q133 0 236.5 -37t173.5 -102t105.5 -149 t35.5 -176v-78h-284v52q0 90 -70 156.5t-197 66.5q-107 0 -169.5 -44t-62.5 -118q0 -39 15 -70.5t53 -56.5t99 -44t156 -36q236 -43 360.5 -144t124.5 -299v-26q0 -104 -37 -190t-108 -145.5t-172.5 -92t-228.5 -32.5q-148 0 -260.5 42t-188.5 116.5t-114 174t-38 218.5z " />
<glyph unicode="T" d="M117 1235v271h1083v-271h-400v-1235h-283v1235h-400z" />
<glyph unicode="U" d="M117 521v985h283v-985q0 -134 62.5 -209.5t195.5 -75.5q134 0 196 75.5t62 209.5v985h284v-985q0 -259 -136.5 -405t-405.5 -146q-268 0 -404.5 146t-136.5 405z" />
<glyph unicode="V" d="M51 1506h293l294 -1364h39l295 1364h292l-339 -1506h-533z" />
<glyph unicode="W" d="M17 1506h258l35 -1145v-193h51v193l69 1145h456l68 -1145v-193h52v193l35 1145h258l-52 -1506h-494l-69 1144v206h-52v-206l-68 -1144h-495z" />
<glyph unicode="X" d="M71 0l309 735v39l-309 732h307l254 -616h52l254 616h307l-309 -732v-39l309 -735h-307l-254 620h-52l-254 -620h-307z" />
<glyph unicode="Y" d="M19 1506h310l309 -718h39l310 718h310l-433 -977h-64v-529h-283v529h-65z" />
<glyph unicode="Z" d="M101 0v464l851 732v39h-838v271h1070v-465l-851 -731v-39h878v-271h-1110z" />
<glyph unicode="[" d="M507 -117v1738q0 97 61.5 158.5t158.5 61.5h284v-259h-174q-58 0 -59 -64v-1531q0 -64 59 -65h174v-257h-284q-97 0 -158.5 61t-61.5 157z" />
<glyph unicode="\" d="M213 1697l245 77l646 -1965l-248 -78z" />
<glyph unicode="]" d="M306 -78h174q58 0 58 65v1531q0 64 -58 64h-174v259h283q97 0 158 -61.5t61 -158.5v-1738q0 -96 -61 -157t-158 -61h-283v257z" />
<glyph unicode="^" d="M142 911l288 595h456l288 -595h-301l-196 452h-39l-195 -452h-301z" />
<glyph unicode="_" d="M131 -103h1053v-246h-1053v246z" />
<glyph unicode="`" d="M454 1518h288l112 -293h-220z" />
<glyph unicode="a" d="M86 517v33q0 127 37 228.5t99 172.5t144.5 108t177.5 37q114 0 184 -38t111 -120h39v129h271v-745q0 -64 57 -64h41v-258h-184q-74 0 -120 43t-46 111h-39q-43 -100 -120.5 -142t-181.5 -42q-96 0 -181 36.5t-149 107.5t-102 172t-38 231zM357 521q0 -136 71 -214.5 t189 -78.5q119 0 190 78.5t71 214.5v25q0 135 -71.5 214t-189.5 79t-189 -79t-71 -214v-25z" />
<glyph unicode="b" d="M123 0v1506h271v-595h39q43 89 124 137t208 48q95 0 180 -36t148.5 -106t101.5 -171.5t38 -230.5v-39q0 -131 -37 -231.5t-99.5 -170.5t-147.5 -105.5t-184 -35.5q-73 0 -126.5 15t-93.5 40.5t-66.5 59.5t-45.5 69h-39v-154h-271zM394 521q0 -131 78 -212t205 -81 t205.5 78.5t78.5 214.5v25q0 135 -78.5 214t-205.5 79t-205 -81t-78 -212v-25z" />
<glyph unicode="c" d="M111 511v27q0 129 43 232t120 176.5t178.5 111.5t218.5 38q224 0 362.5 -116t175.5 -305l-267 -68q-13 94 -81.5 163t-193.5 69q-58 0 -110 -21.5t-90.5 -61.5t-61 -97t-22.5 -128v-12q0 -72 22.5 -126.5t61 -91t90.5 -55t110 -18.5q125 0 190.5 62.5t84.5 167.5l267 -66 q-37 -189 -173.5 -305.5t-364.5 -116.5q-119 0 -220.5 36.5t-177.5 105.5t-119 170t-43 229z" />
<glyph unicode="d" d="M94 513v39q0 129 38 230.5t103.5 171.5t153 106t183.5 36q129 0 204.5 -48t118.5 -137h38v595h271v-1506h-271v154h-38q-17 -36 -42.5 -69.5t-64.5 -59t-94.5 -40.5t-131.5 -15q-99 0 -184 35.5t-148.5 105.5t-99.5 171t-36 231zM365 521q0 -136 78.5 -214.5t205.5 -78.5 t205.5 81t78.5 212v25q0 131 -78.5 212t-205.5 81t-205.5 -79t-78.5 -214v-25z" />
<glyph unicode="e" d="M127 538v12q0 123 42 224.5t115 172t170.5 110t210.5 39.5q137 0 236 -48t163.5 -122t95 -163.5t30.5 -173.5v-144h-784q2 -47 22.5 -87t56.5 -69t82 -45t98 -16q100 0 154 35.5t78 85.5l232 -130q-19 -41 -53.5 -85t-89.5 -80.5t-133.5 -60t-183.5 -23.5 q-121 0 -219.5 38.5t-170.5 111.5t-112 178.5t-40 239.5zM411 677h503q-13 76 -81 125.5t-170 49.5q-103 0 -168 -52.5t-84 -122.5z" />
<glyph unicode="f" d="M160 808v259h302v219q0 93 62.5 156.5t154.5 63.5h435v-259h-322q-58 0 -59 -65v-115h420v-259h-420v-808h-271v808h-302z" />
<glyph unicode="g" d="M90 513v39q0 129 38 230.5t103.5 171.5t152.5 106t184 36q129 0 204 -48t118 -137h39v156h271v-1329q0 -74 -46 -121t-120 -47h-718v258h554q58 0 59 65v261h-39q-16 -36 -41.5 -69.5t-65 -59t-94.5 -40.5t-133 -15q-98 0 -183 35.5t-148 105.5t-99 171t-36 231zM361 521 q0 -136 78.5 -214.5t205.5 -78.5t205.5 81t78.5 212v25q0 131 -78.5 212t-205.5 81t-205.5 -79t-78.5 -214v-25z" />
<glyph unicode="h" d="M172 0v1506h271v-611h39q41 96 120 148.5t196 52.5q80 0 146.5 -25.5t116 -77t77.5 -132.5t28 -190v-671h-271v607q0 114 -55 179.5t-159 65.5q-120 0 -179 -81t-59 -217v-554h-271z" />
<glyph unicode="i" d="M187 0v258h361v550h-335v259h606v-809h310v-258h-942zM478 1383q0 43 15.5 81t44 64.5t64.5 42.5t79 16q41 0 79 -16t66 -42.5t44 -64.5t16 -81t-16 -81t-44 -64.5t-66 -43t-79 -16.5q-43 0 -79 16.5t-64.5 43t-44 64.5t-15.5 81z" />
<glyph unicode="j" d="M232 -172h388q64 0 64 71v909h-413v259h683v-1278q0 -111 -59.5 -165t-157.5 -54h-505v258zM611 1383q0 43 16 81t44 64.5t64.5 42.5t79.5 16q41 0 78.5 -16t65.5 -42.5t44.5 -64.5t16.5 -81t-16.5 -81t-44.5 -64.5t-65.5 -43t-78.5 -16.5q-43 0 -79.5 16.5t-64.5 43 t-44 64.5t-16 81z" />
<glyph unicode="k" d="M254 0v1506h271v-831h51l284 392h297v-13l-344 -488v-39l379 -514v-13h-310l-306 417h-51v-417h-271z" />
<glyph unicode="l" d="M162 0v258h374v989h-362v259h632v-1248h349v-258h-993z" />
<glyph unicode="m" d="M78 0v1067h271v-103h38q13 58 59 95t122 37q71 0 120 -37t67 -95h39q17 58 72 95t136 37q107 0 172 -72t65 -199v-825h-271v749q0 45 -22.5 67.5t-59.5 22.5q-43 0 -67.5 -25.5t-24.5 -78.5v-735h-271v749q0 45 -24.5 67.5t-59.5 22.5q-39 0 -64.5 -25.5t-25.5 -78.5 v-735h-271z" />
<glyph unicode="n" d="M168 0v1067h271v-160h39q36 91 117.5 140t192.5 49q77 0 144.5 -24.5t119.5 -76t80.5 -131t28.5 -189.5v-675h-271v607q0 114 -55 179.5t-158 65.5q-121 0 -179.5 -81t-58.5 -217v-554h-271z" />
<glyph unicode="o" d="M103 521v25q0 131 45 233.5t123 173.5t177.5 107t209.5 36t210 -36t177 -107t122.5 -173.5t45.5 -233.5v-25q0 -134 -45.5 -236t-122.5 -172t-177 -106.5t-210 -36.5q-109 0 -209 36.5t-178 106.5t-123 172t-45 236zM374 511q0 -66 22.5 -118.5t61.5 -89t91 -56 t109 -19.5q58 0 109.5 19.5t90.5 56t61.5 89t22.5 118.5v43q0 67 -22.5 120t-61.5 89.5t-90.5 56t-109.5 19.5q-57 0 -109 -19.5t-91 -56t-61.5 -89t-22.5 -120.5v-43z" />
<glyph unicode="p" d="M111 -430v1497h272v-156h38q43 89 125 137t209 48q94 0 179.5 -36t149 -106t100.5 -171.5t37 -230.5v-39q0 -131 -36 -231.5t-98.5 -170.5t-147.5 -105.5t-184 -35.5q-74 0 -127.5 15t-93 40.5t-66.5 59.5t-47 69h-38v-584h-272zM383 521q0 -131 78.5 -212t205.5 -81 t205 78.5t78 214.5v25q0 135 -78 214t-205 79t-205.5 -81t-78.5 -212v-25z" />
<glyph unicode="q" d="M94 513v39q0 129 38 230.5t103.5 171.5t153 106t183.5 36q129 0 204.5 -48t118.5 -137h38v156h271v-1497h-271v584h-38q-17 -36 -42.5 -69.5t-64.5 -59t-94.5 -40.5t-131.5 -15q-99 0 -184 35.5t-148.5 105.5t-99.5 171t-36 231zM365 521q0 -136 78.5 -214.5t205.5 -78.5 t205.5 81t78.5 212v25q0 131 -78.5 212t-205.5 81t-205.5 -79t-78.5 -214v-25z" />
<glyph unicode="r" d="M90 0v258h220v550h-193v259h451v-156h39q30 89 101.5 137t173.5 48q160 0 256.5 -99.5t96.5 -304.5v-47l-281 -25v29q0 88 -45 141t-135 53t-141.5 -62.5t-51.5 -178.5v-344h244v-258h-735z" />
<glyph unicode="s" d="M193 306l250 81q17 -69 72 -120.5t169 -51.5q100 0 138 31t38 68q0 21 -9.5 39.5t-35 34.5t-70 27t-111.5 18q-180 14 -287 92.5t-107 231.5v13q0 79 35 139.5t90.5 102.5t129 63t150.5 21q101 0 175.5 -24.5t126 -64t84 -88.5t48.5 -94l-244 -98q-19 57 -67 91t-123 34 q-70 0 -104 -25t-34 -62q0 -51 54 -73.5t196 -37.5q164 -17 267 -97.5t103 -225.5v-13q0 -159 -116 -253.5t-327 -94.5q-125 0 -213 32.5t-146 80.5t-89 107.5t-43 115.5z" />
<glyph unicode="t" d="M138 808v259h316v439h270v-439h386v-259h-386v-486q0 -64 58 -64h289v-258h-451q-74 0 -120 47t-46 121v640h-316z" />
<glyph unicode="u" d="M168 400v667h271v-611q0 -115 53.5 -178t161.5 -63q123 0 179.5 78.5t56.5 213.5v560h271v-1067h-271v154h-38q-72 -184 -306 -184q-80 0 -148.5 25.5t-120 79.5t-80.5 134.5t-29 190.5z" />
<glyph unicode="v" d="M92 1067h293l251 -938h39l252 938h292l-305 -1067h-516z" />
<glyph unicode="w" d="M33 1067h248l48 -809v-129h51v129l55 809h447l54 -809v-129h51v129l47 809h250l-71 -1067h-469l-60 808v130h-52v-130l-60 -808h-469z" />
<glyph unicode="x" d="M127 0l273 527v39l-260 501h301l197 -392h39l199 392h298l-258 -501v-39l274 -527h-312l-201 417h-39l-199 -417h-312z" />
<glyph unicode="y" d="M168 400v667h271v-611q0 -115 53.5 -178t161.5 -63q123 0 179.5 78.5t56.5 213.5v560h271v-1329q0 -74 -46 -121t-120 -47h-634v258h472q57 0 57 65v261h-38q-72 -184 -306 -184q-80 0 -148.5 25.5t-120 79.5t-80.5 134.5t-29 190.5z" />
<glyph unicode="z" d="M195 0v452l671 326v39h-657v250h890v-439l-671 -331v-39h697v-258h-930z" />
<glyph unicode="{" d="M357 597v310h135q58 0 58 63v651q0 97 61.5 158.5t158.5 61.5h284v-259h-174q-58 0 -59 -64v-578q0 -74 -46 -121t-121 -47h-14v-39h14q76 0 121.5 -47.5t45.5 -119.5v-579q0 -64 59 -65h174v-257h-284q-97 0 -158.5 61t-61.5 157v653q0 61 -58 61h-135z" />
<glyph unicode="|" d="M529 -335v2176h259v-2176h-259z" />
<glyph unicode="}" d="M262 -78h175q58 0 58 65v579q0 73 46 120t122 47h12v39h-12q-76 0 -122 47t-46 121v578q0 64 -58 64h-175v259h284q97 0 158 -61.5t61 -158.5v-651q0 -62 58 -63h136v-310h-136q-58 0 -58 -61v-653q0 -96 -61 -157t-158 -61h-284v257z" />
<glyph unicode="~" d="M84 624l260 197q37 31 85.5 53.5t106.5 22.5q75 0 117.5 -26t66.5 -63q27 -43 43.5 -59t47.5 -16q21 0 41.5 12t42.5 29l184 135l151 -199l-260 -199q-37 -30 -85 -52t-107 -22q-76 0 -118.5 25.5t-66.5 62.5q-26 43 -43 59t-47 16q-21 0 -41.5 -12t-42.5 -29l-185 -136z " />
<glyph unicode="&#xa0;" />
<glyph unicode="&#xa1;" d="M454 901q0 -43 16 -81t44 -64.5t64.5 -42.5t79.5 -16q41 0 78.5 16t66 42.5t44 64.5t15.5 81t-15.5 80.5t-44 64.5t-66 43t-78.5 16q-43 0 -79.5 -16t-64.5 -43t-44 -64.5t-16 -80.5zM517 -431h283v1050h-283v-1050z" />
<glyph unicode="&#xa2;" d="M121 735v26q0 112 34 205.5t94.5 163.5t142.5 114t176 61v140h206v-138q168 -26 280 -133t138 -267l-242 -55q-12 75 -53 135t-123 84v-636q82 24 123 87t57 132l242 -57q-30 -159 -140 -266t-282 -136v-135h-206v135q-94 15 -176 58.5t-142.5 112.5t-94.5 161.5 t-34 207.5zM365 742q0 -120 56.5 -197t146.5 -106v626q-90 -33 -146.5 -114t-56.5 -196v-13z" />
<glyph unicode="&#xa3;" d="M224 219v233h129v155h-129v206h129v129q0 183 101.5 278.5t267.5 95.5q80 0 149 -25t117 -72t76 -116t28 -157v-39h-245v43q0 52 -27.5 93t-97.5 41q-69 0 -97 -41t-28 -93v-137h156v-206h-156v-155h470v-233h-843z" />
<glyph unicode="&#xa4;" d="M74 333l131 131q-41 62 -62.5 134.5t-21.5 154.5q0 80 21.5 153t62.5 135l-131 131l164 166l132 -132q62 39 134 61.5t154 22.5q80 0 153 -22.5t135 -61.5l131 132l166 -166l-131 -131q39 -62 61.5 -135t22.5 -153q0 -82 -22.5 -154t-61.5 -135l131 -131l-166 -165 l-131 131q-62 -41 -135.5 -62.5t-152.5 -21.5q-82 0 -153.5 21.5t-134.5 62.5l-132 -131zM353 753q0 -64 23.5 -120.5t64.5 -97t96.5 -64.5t120.5 -24q64 0 120.5 24t97 64.5t64.5 96.5t24 121q0 64 -24 120t-64.5 97t-97 64.5t-120.5 23.5t-120 -23.5t-97 -64.5t-64.5 -97 t-23.5 -120z" />
<glyph unicode="&#xa5;" d="M183 1286h288l174 -447h26l174 447h288l-187 -447h123v-207h-275v-64h275v-207h-275v-142h-271v142h-275v207h275v64h-275v207h122z" />
<glyph unicode="&#xa6;" d="M529 -335v959h259v-959h-259zM529 882v959h259v-959h-259z" />
<glyph unicode="&#xa7;" d="M361 747v12h193v-12q0 -48 33 -73t84 -25t72.5 19.5t21.5 45.5q0 13 -4 25t-17 22.5t-40 19.5t-72 17q-47 8 -92 25.5t-79.5 46.5t-56 72t-21.5 103q0 45 11.5 80.5t28.5 58.5q-12 27 -19.5 53.5t-7.5 65.5q0 111 78 171.5t193 60.5q69 0 122.5 -19.5t89 -52.5t53.5 -78 t18 -95v-12h-193v8q0 31 -20.5 49.5t-69.5 18.5q-39 0 -58.5 -14.5t-19.5 -36.5q0 -30 25.5 -46t116.5 -34q116 -21 178.5 -81t62.5 -170q0 -34 -9 -71t-30 -66q11 -19 18.5 -47.5t7.5 -65.5q0 -109 -76.5 -181.5t-211.5 -72.5q-152 0 -231 80t-79 199zM585 1047 q0 -21 17.5 -41.5t85.5 -37.5l77 -20q5 9 5 22q0 31 -19.5 51t-81.5 35l-78 17q-6 -10 -6 -26z" />
<glyph unicode="&#xa8;" d="M197 1383q0 43 16.5 81t44.5 64.5t64.5 42.5t79.5 16q41 0 79 -16t65.5 -42.5t44 -64.5t16.5 -81t-16.5 -81t-44 -64.5t-65.5 -43t-79 -16.5q-43 0 -79.5 16.5t-64.5 43t-44.5 64.5t-16.5 81zM710 1383q0 43 16 81t44 64.5t64 42.5t80 16q40 0 78 -16t66 -42.5t44 -64.5 t16 -81t-16 -81t-44 -64.5t-66 -43t-78 -16.5q-44 0 -80 16.5t-64 43t-44 64.5t-16 81z" />
<glyph unicode="&#xa9;" d="M60 1196q0 123 47 232t128 190t191 128t232 47q123 0 232.5 -47t190 -128t128 -190.5t47.5 -231.5q0 -123 -47.5 -232.5t-128 -190.5t-190.5 -128.5t-232 -47.5t-232 47.5t-191 128.5t-128 190.5t-47 232.5zM228 1196q0 -90 33.5 -169t91.5 -136.5t136.5 -91.5t168.5 -34 q91 0 169 34t136.5 91.5t91.5 136.5t33 169t-33 168.5t-91.5 136.5t-136.5 91t-169 33q-90 0 -168.5 -33t-136.5 -91t-91.5 -136.5t-33.5 -168.5zM419 1096v199q0 98 64.5 160.5t172.5 62.5q109 0 172.5 -62.5t63.5 -160.5v-35h-168v35q0 26 -15.5 47t-52.5 21 q-36 0 -52.5 -21.5t-16.5 -46.5v-199q0 -26 16.5 -47t52.5 -21q37 0 52.5 21.5t15.5 46.5v35h168v-35q0 -98 -63.5 -160.5t-172.5 -62.5q-105 0 -171 62.5t-66 160.5z" />
<glyph unicode="&#xaa;" d="M297 1196q0 78 22.5 136.5t61 100.5t91.5 63.5t113 21.5q64 0 100.5 -20.5t61.5 -52.5h18v61h173v-416q0 -37 34 -36h43v-168h-163q-39 0 -60.5 20.5t-26.5 52.5h-18q-21 -39 -62.5 -62.5t-103.5 -23.5q-58 0 -110 21.5t-90.5 62.5t-61 101t-22.5 138zM478 1196 q0 -71 37.5 -113t101.5 -42t102 42t38 113t-38 112.5t-102 41.5t-101.5 -42t-37.5 -112z" />
<glyph unicode="&#xab;" d="M91 327l529 -327h13v306l-374 207v39l374 209v306h-13l-529 -327v-413zM684 327l529 -327h13v306l-374 207v39l374 209v306h-13l-529 -327v-413z" />
<glyph unicode="&#xac;" d="M209 630v246h899v-527h-246v281h-653z" />
<glyph unicode="&#xad;" d="M322 468v246h671v-246h-671z" />
<glyph unicode="&#xae;" d="M60 1196q0 123 47 232t128 190t191 128t232 47q123 0 232.5 -47t190 -128t128 -190.5t47.5 -231.5q0 -123 -47.5 -232.5t-128 -190.5t-190.5 -128.5t-232 -47.5t-232 47.5t-191 128.5t-128 190.5t-47 232.5zM228 1196q0 -90 33.5 -169t91.5 -136.5t136.5 -91.5t168.5 -34 q91 0 169 34t136.5 91.5t91.5 136.5t33 169t-33 168.5t-91.5 136.5t-136.5 91t-169 33q-90 0 -168.5 -33t-136.5 -91t-91.5 -136.5t-33.5 -168.5zM464 886v620h228q97 0 147.5 -52t50.5 -120q0 -115 -86 -150v-18q39 -5 56.5 -30.5t17.5 -56.5v-193h-168v152 q0 25 -14.5 39.5t-39.5 14.5h-24v-206h-168zM632 1247h35q55 0 55 52q0 51 -55 51h-35v-103z" />
<glyph unicode="&#xaf;" d="M342 1225v220h632v-220h-632z" />
<glyph unicode="&#xb0;" d="M320 1223q0 72 27 133.5t72 106.5t106.5 71.5t132.5 26.5q72 0 133 -26.5t106 -71.5t71.5 -106.5t26.5 -133.5q0 -71 -26.5 -132t-71.5 -106t-106.5 -72t-132.5 -27t-132.5 27t-106.5 72t-72 106t-27 132zM552 1223q0 -43 31.5 -74t74.5 -31t74 31t31 74t-31 74.5 t-74 31.5t-74.5 -31.5t-31.5 -74.5z" />
<glyph unicode="&#xb1;" d="M209 0v245h899v-245h-899zM209 630v246h327v326h244v-326h328v-246h-328v-281h-244v281h-327z" />
<glyph unicode="&#xb2;" d="M430 886v142q0 47 16 83t43.5 60.5t60.5 39t70 24.5q71 17 89 33t18 39q0 24 -16 40t-46 16q-67 0 -68 -77h-167v13q0 101 64.5 160t178.5 59q101 0 161.5 -58t60.5 -135q0 -88 -43.5 -134.5t-111.5 -63.5q-84 -25 -113.5 -39.5t-29.5 -46.5h291v-155h-458z" />
<glyph unicode="&#xb3;" d="M430 1075v26h167v-13q0 -31 17.5 -45.5t48.5 -14.5q30 0 47 15t17 45q0 64 -73 65h-57v150l100 33v18h-248v152h415v-211l-99 -37v-19q50 -11 90 -49.5t40 -110.5q0 -92 -60.5 -149t-163.5 -57q-123 0 -182 62.5t-59 139.5z" />
<glyph unicode="&#xb4;" d="M462 1225l112 293h288l-181 -293h-219z" />
<glyph unicode="&#xb5;" d="M162 -430v1497h271v-593q0 -54 10.5 -100.5t37 -82t69.5 -56t108 -20.5q64 0 107 20.5t70 56t38 81.5t11 101v593h271v-1067h-271v64h-39q-21 -43 -66.5 -68.5t-120.5 -25.5t-120.5 25.5t-66.5 68.5h-38v-494h-271z" />
<glyph unicode="&#xb6;" d="M226 1223q0 64 23.5 121.5t65.5 99.5t99 66.5t122 24.5h554v-1067h-232v848h-64v-848h-232v443h-26q-65 0 -122 25t-99 67t-65.5 99t-23.5 121zM445 1223q0 -47 27 -69.5t64 -22.5h26v185h-26q-37 0 -64 -23t-27 -70z" />
<glyph unicode="&#xb7;" d="M454 753q0 43 16 80t44 64.5t64.5 43.5t79.5 16q41 0 78.5 -16t66 -43.5t44 -64.5t15.5 -80t-15.5 -81t-44 -64.5t-66 -43t-78.5 -16.5q-43 0 -79.5 16.5t-64.5 43t-44 64.5t-16 81z" />
<glyph unicode="&#xb8;" d="M452 -197l43 197h150l-21 -99h25q10 19 34.5 33.5t65.5 14.5q90 0 134 -56.5t44 -132.5q0 -101 -67.5 -158.5t-169.5 -57.5q-62 0 -103 11.5t-78 31.5l57 146q49 -30 107 -30q33 0 53.5 15t20.5 42q0 18 -11.5 32.5t-31.5 14.5q-37 0 -44 -31h-208v27z" />
<glyph unicode="&#xb9;" d="M426 1196v193l155 117h193v-465h155v-155h-490v155h168v284h-14l-154 -129h-13z" />
<glyph unicode="&#xba;" d="M338 1196q0 80 26 139.5t70 100.5t101.5 61.5t122.5 20.5q64 0 122.5 -20.5t102.5 -61.5t70 -101t26 -139q0 -80 -26 -140.5t-70 -101t-102.5 -61t-122.5 -20.5t-122 20.5t-102 61t-70 101t-26 140.5zM519 1196q0 -71 36.5 -113t102.5 -42t103 42t37 113t-37 112.5 t-103 41.5t-102.5 -42t-36.5 -112z" />
<glyph unicode="&#xbb;" d="M92 0v306l374 207v39l-374 209v306h13l529 -327v-413l-529 -327h-13zM684 0v306l374 207v39l-374 209v306h13l529 -327v-413l-529 -327h-13z" />
<glyph unicode="&#xbc;" d="M114 1196v193l155 117h193v-465h155v-155h-490v155h168v284h-14l-154 -129h-13zM129 576l1015 520l89 -167l-1016 -521zM720 105v209l151 308h297v-367h90v-150h-90v-103h-168v103h-280zM871 255h129v254h-19l-110 -234v-20z" />
<glyph unicode="&#xbd;" d="M110 1196v193l155 117h193v-465h155v-155h-490v155h168v284h-14l-154 -129h-13zM124 576l1015 520l89 -167l-1016 -521zM763 2v142q0 47 16 83t43.5 60.5t60.5 39t70 24.5q71 17 89 33t18 39q0 24 -16 40t-46 16q-67 0 -68 -77h-167v13q0 101 64.5 160t178.5 59 q101 0 161.5 -58t60.5 -135q0 -88 -43.5 -134.5t-111.5 -63.5q-84 -25 -113.5 -39.5t-29.5 -46.5h291v-155h-458z" />
<glyph unicode="&#xbe;" d="M101 1075v26h167v-13q0 -31 17.5 -45.5t48.5 -14.5q30 0 47 15t17 45q0 64 -73 65h-57v150l100 33v18h-248v152h415v-211l-99 -37v-19q50 -11 90 -49.5t40 -110.5q0 -92 -60.5 -149t-163.5 -57q-123 0 -182 62.5t-59 139.5zM113 576l1015 520l89 -167l-1016 -521z M705 105v209l151 308h297v-367h90v-150h-90v-103h-168v103h-280zM856 255h129v254h-19l-110 -234v-20z" />
<glyph unicode="&#xbf;" d="M137 30v13q0 88 26.5 167.5t76 139.5t122.5 97t163 37q30 0 45.5 17.5t15.5 46.5v71h271v-184q0 -84 -57.5 -141.5t-141.5 -57.5h-41q-92 0 -144.5 -57.5t-52.5 -152.5q0 -90 62.5 -152.5t169.5 -62.5q58 0 103 20.5t77.5 55.5t48.5 81.5t16 95.5v90h284v-115 q0 -97 -35.5 -187.5t-103.5 -159t-167.5 -110.5t-226.5 -42q-115 0 -209.5 37t-162 104t-103.5 156t-36 193zM515 901q0 43 16 80.5t44 64.5t65.5 43t78.5 16q43 0 79.5 -16t64 -43t44 -64.5t16.5 -80.5t-16.5 -81t-44 -64.5t-64.5 -42.5t-79 -16q-41 0 -78.5 16t-65.5 42.5 t-44 64.5t-16 81z" />
<glyph unicode="&#xc0;" d="M33 0l359 1506h533l359 -1506h-297l-73 322h-512l-73 -322h-296zM370 1957h288l112 -293h-220zM462 593h390l-175 770h-39z" />
<glyph unicode="&#xc1;" d="M33 0l359 1506h533l359 -1506h-297l-73 322h-512l-73 -322h-296zM462 593h390l-175 770h-39zM548 1664l112 293h288l-181 -293h-219z" />
<glyph unicode="&#xc2;" d="M33 0l359 1506h533l359 -1506h-297l-73 322h-512l-73 -322h-296zM293 1664l181 293h369l181 -293h-261l-92 190h-26l-93 -190h-259zM462 593h390l-175 770h-39z" />
<glyph unicode="&#xc3;" d="M33 0l359 1506h533l359 -1506h-297l-73 322h-512l-73 -322h-296zM228 1753l121 155q41 51 86 72.5t98 21.5q43 0 82.5 -19.5t76.5 -62.5q17 -19 34.5 -35t47.5 -16t48.5 14t35.5 37l65 82l165 -131l-120 -155q-39 -49 -84 -71.5t-102 -22.5q-43 0 -82.5 19.5t-75.5 62.5 q-17 19 -34.5 35t-47.5 16q-31 0 -48.5 -14t-35.5 -37l-64 -82zM462 593h390l-175 770h-39z" />
<glyph unicode="&#xc4;" d="M33 0l359 1506h533l359 -1506h-297l-73 322h-512l-73 -322h-296zM197 1813q0 43 16.5 81t44.5 64.5t64.5 42.5t79.5 16q41 0 79 -16t65.5 -42.5t44 -64.5t16.5 -81t-16.5 -81t-44 -64.5t-65.5 -43t-79 -16.5q-43 0 -79.5 16.5t-64.5 43t-44.5 64.5t-16.5 81zM462 593h390 l-175 770h-39zM710 1813q0 43 16 81t44 64.5t64 42.5t80 16q40 0 78 -16t66 -42.5t44 -64.5t16 -81t-16 -81t-44 -64.5t-66 -43t-78 -16.5q-44 0 -80 16.5t-64 43t-44 64.5t-16 81z" />
<glyph unicode="&#xc5;" d="M33 0l359 1506h533l359 -1506h-297l-73 322h-512l-73 -322h-296zM426 1883q0 47 18 90.5t49.5 75t73.5 49.5t91 18q48 0 91 -18t74 -49.5t49 -74t18 -91.5t-18 -91t-49 -73t-74 -49.5t-91 -18.5q-49 0 -91 18.5t-73.5 49.5t-49.5 73t-18 91zM462 593h390l-175 770h-39z M593 1883q0 -28 18.5 -46t46.5 -18q29 0 46.5 18.5t17.5 45.5q0 29 -18 47t-46 18t-46.5 -18t-18.5 -47z" />
<glyph unicode="&#xc6;" d="M0 0l359 1506h909v-271h-369v-345h357v-270h-357v-349h383v-271h-667v322h-245l-73 -322h-297zM430 593h185v642h-39z" />
<glyph unicode="&#xc7;" d="M103 585v336q0 144 39 259t112 193t176 120t233 42q133 0 236 -38.5t172.5 -112t105.5 -176t36 -232.5v-38h-284v38q0 54 -13 107.5t-43 96.5t-81.5 70.5t-128.5 27.5q-72 0 -123.5 -27.5t-86 -73.5t-50.5 -107t-16 -128v-378q0 -74 15 -135t47.5 -106.5t85 -70 t128.5 -24.5q81 0 133.5 24.5t81.5 66.5t40 97t11 113v39h284v-39q0 -252 -123.5 -394.5t-358.5 -162.5l-15 -71h26q11 19 34.5 33.5t64.5 14.5q90 0 134.5 -56.5t44.5 -132.5q0 -101 -68 -158.5t-170 -57.5q-62 0 -103 11.5t-77 31.5l56 146q50 -30 107 -30q33 0 53.5 15 t20.5 42q0 18 -11 32.5t-32 14.5q-37 0 -43 -31h-209v27l37 171q-224 24 -351 179t-127 432z" />
<glyph unicode="&#xc8;" d="M176 0v1506h951v-271h-667v-345h641v-270h-641v-349h693v-271h-977zM388 1957h288l112 -293h-220z" />
<glyph unicode="&#xc9;" d="M176 0v1506h951v-271h-667v-345h641v-270h-641v-349h693v-271h-977zM552 1664l112 293h288l-181 -293h-219z" />
<glyph unicode="&#xca;" d="M176 0v1506h951v-271h-667v-345h641v-270h-641v-349h693v-271h-977zM289 1664l181 293h369l181 -293h-261l-92 190h-26l-93 -190h-259z" />
<glyph unicode="&#xcb;" d="M176 0v1506h951v-271h-667v-345h641v-270h-641v-349h693v-271h-977zM193 1813q0 43 16.5 81t44.5 64.5t64.5 42.5t79.5 16q41 0 79 -16t65.5 -42.5t44 -64.5t16.5 -81t-16.5 -81t-44 -64.5t-65.5 -43t-79 -16.5q-43 0 -79.5 16.5t-64.5 43t-44.5 64.5t-16.5 81zM706 1813 q0 43 16 81t44 64.5t64 42.5t80 16q40 0 78 -16t66 -42.5t44 -64.5t16 -81t-16 -81t-44 -64.5t-66 -43t-78 -16.5q-44 0 -80 16.5t-64 43t-44 64.5t-16 81z" />
<glyph unicode="&#xcc;" d="M154 0v271h363v964h-363v271h1007v-271h-361v-964h361v-271h-1007zM355 1957h288l112 -293h-220z" />
<glyph unicode="&#xcd;" d="M154 0v271h363v964h-363v271h1007v-271h-361v-964h361v-271h-1007zM550 1664l112 293h288l-181 -293h-219z" />
<glyph unicode="&#xce;" d="M154 0v271h363v964h-363v271h1007v-271h-361v-964h361v-271h-1007zM293 1664l181 293h369l181 -293h-261l-92 190h-26l-93 -190h-259z" />
<glyph unicode="&#xcf;" d="M154 0v271h363v964h-363v271h1007v-271h-361v-964h361v-271h-1007zM197 1813q0 43 16.5 81t44.5 64.5t64.5 42.5t79.5 16q41 0 79 -16t65.5 -42.5t44 -64.5t16.5 -81t-16.5 -81t-44 -64.5t-65.5 -43t-79 -16.5q-43 0 -79.5 16.5t-64.5 43t-44.5 64.5t-16.5 81zM710 1813 q0 43 16 81t44 64.5t64 42.5t80 16q40 0 78 -16t66 -42.5t44 -64.5t16 -81t-16 -81t-44 -64.5t-66 -43t-78 -16.5q-44 0 -80 16.5t-64 43t-44 64.5t-16 81z" />
<glyph unicode="&#xd0;" d="M99 0v271h141v353h-141v258h141v353h-141v271h546q279 0 415 -130.5t136 -403.5v-439q0 -273 -135.5 -403t-415.5 -130h-546zM525 271h120q148 0 207 70t59 218v413q0 129 -58.5 196t-207.5 67h-120v-353h210v-258h-210v-353z" />
<glyph unicode="&#xd1;" d="M131 0v1506h555l176 -1364h39v1364h283v-1506h-554l-176 1363h-39v-1363h-284zM241 1748l121 155q41 51 86 72.5t98 21.5q43 0 82.5 -19.5t76.5 -62.5q17 -19 34.5 -35t47.5 -16t48.5 14t35.5 37l65 82l165 -131l-120 -155q-39 -49 -84 -71.5t-102 -22.5 q-43 0 -82.5 19.5t-75.5 62.5q-17 19 -34.5 35t-47.5 16q-31 0 -48.5 -14t-35.5 -37l-64 -82z" />
<glyph unicode="&#xd2;" d="M103 585v336q0 293 147.5 453.5t407.5 160.5q261 0 408 -161t147 -453v-336q0 -301 -147.5 -458t-407.5 -157t-407.5 157t-147.5 458zM372 1957h288l112 -293h-220zM387 568q0 -76 13 -138t45.5 -107.5t84 -70t128.5 -24.5q78 0 129.5 24.5t83.5 70t45 107.5t13 138v370 q0 71 -15 133t-47 107t-84 72.5t-125 27.5t-124.5 -27.5t-84 -72.5t-47.5 -107t-15 -133v-370z" />
<glyph unicode="&#xd3;" d="M103 585v336q0 293 147.5 453.5t407.5 160.5q261 0 408 -161t147 -453v-336q0 -301 -147.5 -458t-407.5 -157t-407.5 157t-147.5 458zM387 568q0 -76 13 -138t45.5 -107.5t84 -70t128.5 -24.5q78 0 129.5 24.5t83.5 70t45 107.5t13 138v370q0 71 -15 133t-47 107 t-84 72.5t-125 27.5t-124.5 -27.5t-84 -72.5t-47.5 -107t-15 -133v-370zM546 1664l112 293h288l-181 -293h-219z" />
<glyph unicode="&#xd4;" d="M103 585v336q0 293 147.5 453.5t407.5 160.5q261 0 408 -161t147 -453v-336q0 -301 -147.5 -458t-407.5 -157t-407.5 157t-147.5 458zM293 1664l181 293h369l181 -293h-261l-92 190h-26l-93 -190h-259zM387 568q0 -76 13 -138t45.5 -107.5t84 -70t128.5 -24.5 q78 0 129.5 24.5t83.5 70t45 107.5t13 138v370q0 71 -15 133t-47 107t-84 72.5t-125 27.5t-124.5 -27.5t-84 -72.5t-47.5 -107t-15 -133v-370z" />
<glyph unicode="&#xd5;" d="M103 585v336q0 293 147.5 453.5t407.5 160.5q261 0 408 -161t147 -453v-336q0 -301 -147.5 -458t-407.5 -157t-407.5 157t-147.5 458zM228 1753l121 155q41 51 86 72.5t98 21.5q43 0 82.5 -19.5t76.5 -62.5q17 -19 34.5 -35t47.5 -16t48.5 14t35.5 37l65 82l165 -131 l-120 -155q-39 -49 -84 -71.5t-102 -22.5q-43 0 -82.5 19.5t-75.5 62.5q-17 19 -34.5 35t-47.5 16q-31 0 -48.5 -14t-35.5 -37l-64 -82zM387 568q0 -76 13 -138t45.5 -107.5t84 -70t128.5 -24.5q78 0 129.5 24.5t83.5 70t45 107.5t13 138v370q0 71 -15 133t-47 107t-84 72.5 t-125 27.5t-124.5 -27.5t-84 -72.5t-47.5 -107t-15 -133v-370z" />
<glyph unicode="&#xd6;" d="M103 585v336q0 293 147.5 453.5t407.5 160.5q261 0 408 -161t147 -453v-336q0 -301 -147.5 -458t-407.5 -157t-407.5 157t-147.5 458zM197 1813q0 43 16.5 81t44.5 64.5t64.5 42.5t79.5 16q41 0 79 -16t65.5 -42.5t44 -64.5t16.5 -81t-16.5 -81t-44 -64.5t-65.5 -43 t-79 -16.5q-43 0 -79.5 16.5t-64.5 43t-44.5 64.5t-16.5 81zM387 568q0 -76 13 -138t45.5 -107.5t84 -70t128.5 -24.5q78 0 129.5 24.5t83.5 70t45 107.5t13 138v370q0 71 -15 133t-47 107t-84 72.5t-125 27.5t-124.5 -27.5t-84 -72.5t-47.5 -107t-15 -133v-370zM710 1813 q0 43 16 81t44 64.5t64 42.5t80 16q40 0 78 -16t66 -42.5t44 -64.5t16 -81t-16 -81t-44 -64.5t-66 -43t-78 -16.5q-44 0 -80 16.5t-64 43t-44 64.5t-16 81z" />
<glyph unicode="&#xd7;" d="M197 471l285 282l-285 281l175 175l286 -282l286 282l174 -175l-283 -281l283 -282l-174 -174l-286 282l-286 -282z" />
<glyph unicode="&#xd8;" d="M103 585v336q0 293 147.5 453.5t407.5 160.5q66 0 130 -13l51 157l234 -73l-60 -184q97 -80 148.5 -206t51.5 -295v-336q0 -301 -147.5 -458t-407.5 -157q-69 0 -118 9l-58 -179l-237 73l65 201q-101 75 -154 202.5t-53 308.5zM387 568q0 -54 5.5 -99.5t20.5 -83.5 l293 888q-11 2 -24 3.5t-24 1.5q-73 0 -124.5 -27.5t-84 -72.5t-47.5 -107t-15 -133v-370zM622 228h36q78 0 129.5 24.5t83.5 70t45 107.5t13 138v370q0 43 -5.5 82.5t-18.5 75.5z" />
<glyph unicode="&#xd9;" d="M117 521v985h283v-985q0 -134 62.5 -209.5t195.5 -75.5q134 0 196 75.5t62 209.5v985h284v-985q0 -259 -136.5 -405t-405.5 -146q-268 0 -404.5 146t-136.5 405zM368 1957h288l112 -293h-220z" />
<glyph unicode="&#xda;" d="M117 521v985h283v-985q0 -134 62.5 -209.5t195.5 -75.5q134 0 196 75.5t62 209.5v985h284v-985q0 -259 -136.5 -405t-405.5 -146q-268 0 -404.5 146t-136.5 405zM550 1664l112 293h288l-181 -293h-219z" />
<glyph unicode="&#xdb;" d="M117 521v985h283v-985q0 -134 62.5 -209.5t195.5 -75.5q134 0 196 75.5t62 209.5v985h284v-985q0 -259 -136.5 -405t-405.5 -146q-268 0 -404.5 146t-136.5 405zM293 1664l181 293h369l181 -293h-261l-92 190h-26l-93 -190h-259z" />
<glyph unicode="&#xdc;" d="M117 521v985h283v-985q0 -134 62.5 -209.5t195.5 -75.5q134 0 196 75.5t62 209.5v985h284v-985q0 -259 -136.5 -405t-405.5 -146q-268 0 -404.5 146t-136.5 405zM197 1813q0 43 16.5 81t44.5 64.5t64.5 42.5t79.5 16q41 0 79 -16t65.5 -42.5t44 -64.5t16.5 -81t-16.5 -81 t-44 -64.5t-65.5 -43t-79 -16.5q-43 0 -79.5 16.5t-64.5 43t-44.5 64.5t-16.5 81zM710 1813q0 43 16 81t44 64.5t64 42.5t80 16q40 0 78 -16t66 -42.5t44 -64.5t16 -81t-16 -81t-44 -64.5t-66 -43t-78 -16.5q-44 0 -80 16.5t-64 43t-44 64.5t-16 81z" />
<glyph unicode="&#xdd;" d="M19 1506h310l309 -718h39l310 718h310l-433 -977h-64v-529h-283v529h-65zM569 1664l112 293h288l-181 -293h-219z" />
<glyph unicode="&#xde;" d="M150 0v1506h285v-285h305q117 0 202.5 -37t142 -98.5t86 -140.5t29.5 -160v-52q0 -84 -29.5 -164.5t-86 -144t-142.5 -102t-202 -38.5h-305v-284h-285zM435 554h277q94 0 149 52t55 134v25q0 82 -55 133.5t-149 51.5h-277v-396z" />
<glyph unicode="&#xdf;" d="M30 808v259h130v39q0 105 37 185.5t100.5 135.5t147.5 81.5t179 26.5q92 0 175 -26.5t144 -78t96.5 -123.5t35.5 -163v-13q0 -84 -24.5 -147t-68.5 -106t-103.5 -68t-125.5 -28v-38h94q76 0 149 -21.5t129.5 -68.5t91.5 -120.5t35 -176.5v-13q0 -82 -26 -149.5 t-75.5 -118t-123 -78.5t-167.5 -28q-86 0 -151.5 25.5t-111 69.5t-71 100.5t-31.5 118.5l262 51q4 -45 30 -76t81 -31q56 0 84.5 34.5t28.5 90.5q0 84 -55.5 121t-151.5 37h-202v491h82q64 0 107 32.5t43 100.5q0 62 -47 102.5t-125 40.5q-90 0 -146 -54t-56 -157v-1067 h-270v808h-130z" />
<glyph unicode="&#xe0;" d="M86 517v33q0 127 37 228.5t99 172.5t144.5 108t177.5 37q114 0 184 -38t111 -120h39v129h271v-745q0 -64 57 -64h41v-258h-184q-74 0 -120 43t-46 111h-39q-43 -100 -120.5 -142t-181.5 -42q-96 0 -181 36.5t-149 107.5t-102 172t-38 231zM257 1518h288l112 -293h-220z M357 521q0 -136 71 -214.5t189 -78.5q119 0 190 78.5t71 214.5v25q0 135 -71.5 214t-189.5 79t-189 -79t-71 -214v-25z" />
<glyph unicode="&#xe1;" d="M86 517v33q0 127 37 228.5t99 172.5t144.5 108t177.5 37q114 0 184 -38t111 -120h39v129h271v-745q0 -64 57 -64h41v-258h-184q-74 0 -120 43t-46 111h-39q-43 -100 -120.5 -142t-181.5 -42q-96 0 -181 36.5t-149 107.5t-102 172t-38 231zM357 521q0 -136 71 -214.5 t189 -78.5q119 0 190 78.5t71 214.5v25q0 135 -71.5 214t-189.5 79t-189 -79t-71 -214v-25zM436 1225l112 293h288l-181 -293h-219z" />
<glyph unicode="&#xe2;" d="M86 517v33q0 127 37 228.5t99 172.5t144.5 108t177.5 37q114 0 184 -38t111 -120h39v129h271v-745q0 -64 57 -64h41v-258h-184q-74 0 -120 43t-46 111h-39q-43 -100 -120.5 -142t-181.5 -42q-96 0 -181 36.5t-149 107.5t-102 172t-38 231zM182 1225l181 293h369l181 -293 h-261l-92 190h-26l-93 -190h-259zM357 521q0 -136 71 -214.5t189 -78.5q119 0 190 78.5t71 214.5v25q0 135 -71.5 214t-189.5 79t-189 -79t-71 -214v-25z" />
<glyph unicode="&#xe3;" d="M86 517v33q0 127 37 228.5t99 172.5t144.5 108t177.5 37q114 0 184 -38t111 -120h39v129h271v-745q0 -64 57 -64h41v-258h-184q-74 0 -120 43t-46 111h-39q-43 -100 -120.5 -142t-181.5 -42q-96 0 -181 36.5t-149 107.5t-102 172t-38 231zM232 1317l121 155 q41 51 86 72.5t98 21.5q43 0 82.5 -19.5t76.5 -62.5q17 -19 34.5 -35t47.5 -16t48.5 14t35.5 37l65 82l165 -131l-120 -155q-39 -49 -84 -71.5t-102 -22.5q-43 0 -82.5 19.5t-75.5 62.5q-17 19 -34.5 35t-47.5 16q-31 0 -48.5 -14t-35.5 -37l-64 -82zM357 521 q0 -136 71 -214.5t189 -78.5q119 0 190 78.5t71 214.5v25q0 135 -71.5 214t-189.5 79t-189 -79t-71 -214v-25z" />
<glyph unicode="&#xe4;" d="M86 517v33q0 127 37 228.5t99 172.5t144.5 108t177.5 37q114 0 184 -38t111 -120h39v129h271v-745q0 -64 57 -64h41v-258h-184q-74 0 -120 43t-46 111h-39q-43 -100 -120.5 -142t-181.5 -42q-96 0 -181 36.5t-149 107.5t-102 172t-38 231zM158 1383q0 43 16.5 81 t44.5 64.5t64.5 42.5t79.5 16q41 0 79 -16t65.5 -42.5t44 -64.5t16.5 -81t-16.5 -81t-44 -64.5t-65.5 -43t-79 -16.5q-43 0 -79.5 16.5t-64.5 43t-44.5 64.5t-16.5 81zM357 521q0 -136 71 -214.5t189 -78.5q119 0 190 78.5t71 214.5v25q0 135 -71.5 214t-189.5 79t-189 -79 t-71 -214v-25zM671 1383q0 43 16 81t44 64.5t64 42.5t80 16q40 0 78 -16t66 -42.5t44 -64.5t16 -81t-16 -81t-44 -64.5t-66 -43t-78 -16.5q-44 0 -80 16.5t-64 43t-44 64.5t-16 81z" />
<glyph unicode="&#xe5;" d="M86 517v33q0 127 37 228.5t99 172.5t144.5 108t177.5 37q114 0 184 -38t111 -120h39v129h271v-745q0 -64 57 -64h41v-258h-184q-74 0 -120 43t-46 111h-39q-43 -100 -120.5 -142t-181.5 -42q-96 0 -181 36.5t-149 107.5t-102 172t-38 231zM315 1453q0 47 18 90.5t49.5 75 t73.5 49.5t91 18q48 0 91 -18t74 -49.5t49 -74t18 -91.5t-18 -91t-49 -73t-74 -49.5t-91 -18.5q-49 0 -91 18.5t-73.5 49.5t-49.5 73t-18 91zM357 521q0 -136 71 -214.5t189 -78.5q119 0 190 78.5t71 214.5v25q0 135 -71.5 214t-189.5 79t-189 -79t-71 -214v-25zM482 1453 q0 -28 18.5 -46t46.5 -18q29 0 46.5 18.5t17.5 45.5q0 29 -18 47t-46 18t-46.5 -18t-18.5 -47z" />
<glyph unicode="&#xe6;" d="M121 314v26q0 76 30 136t81.5 102t119 63.5t143.5 21.5h22v168q-43 0 -85 -30.5t-67 -73.5l-176 184q71 91 180.5 138t270.5 47q134 0 238.5 -38t175.5 -107t108.5 -162.5t37.5 -203.5v-181h-412v-168q51 0 93 22.5t61 68.5l219 -138q-64 -117 -184.5 -168t-303.5 -51 h-62q-105 0 -194.5 19t-155.5 61t-103 108t-37 156zM392 316q0 -43 27.5 -65.5t70.5 -22.5h27v176h-27q-43 0 -70.5 -22.5t-27.5 -65.5zM788 663h141q0 71 -38.5 113.5t-102.5 54.5v-168z" />
<glyph unicode="&#xe7;" d="M111 511v27q0 129 43 232t120 176.5t178.5 111.5t218.5 38q224 0 362.5 -116t175.5 -305l-267 -68q-13 94 -81.5 163t-193.5 69q-58 0 -110 -21.5t-90.5 -61.5t-61 -97t-22.5 -128v-12q0 -72 22.5 -126.5t61 -91t90.5 -55t110 -18.5q125 0 190.5 62.5t84.5 167.5l267 -66 q-35 -177 -154 -288.5t-322 -129.5l-15 -73h26q11 19 34.5 33.5t64.5 14.5q90 0 134.5 -56.5t44.5 -132.5q0 -101 -68 -158.5t-169 -57.5q-62 0 -103.5 11.5t-77.5 31.5l56 146q50 -30 108 -30q32 0 52.5 15t20.5 42q0 18 -11 32.5t-32 14.5q-37 0 -43 -31h-209v27l37 173 q-101 12 -188 53.5t-149.5 109.5t-98.5 162.5t-36 209.5z" />
<glyph unicode="&#xe8;" d="M127 538v12q0 123 42 224.5t115 172t170.5 110t210.5 39.5q137 0 236 -48t163.5 -122t95 -163.5t30.5 -173.5v-144h-784q2 -47 22.5 -87t56.5 -69t82 -45t98 -16q100 0 154 35.5t78 85.5l232 -130q-19 -41 -53.5 -85t-89.5 -80.5t-133.5 -60t-183.5 -23.5 q-121 0 -219.5 38.5t-170.5 111.5t-112 178.5t-40 239.5zM378 1518h288l112 -293h-220zM411 677h503q-13 76 -81 125.5t-170 49.5q-103 0 -168 -52.5t-84 -122.5z" />
<glyph unicode="&#xe9;" d="M127 538v12q0 123 42 224.5t115 172t170.5 110t210.5 39.5q137 0 236 -48t163.5 -122t95 -163.5t30.5 -173.5v-144h-784q2 -47 22.5 -87t56.5 -69t82 -45t98 -16q100 0 154 35.5t78 85.5l232 -130q-19 -41 -53.5 -85t-89.5 -80.5t-133.5 -60t-183.5 -23.5 q-121 0 -219.5 38.5t-170.5 111.5t-112 178.5t-40 239.5zM411 677h503q-13 76 -81 125.5t-170 49.5q-103 0 -168 -52.5t-84 -122.5zM556 1225l112 293h288l-181 -293h-219z" />
<glyph unicode="&#xea;" d="M127 538v12q0 123 42 224.5t115 172t170.5 110t210.5 39.5q137 0 236 -48t163.5 -122t95 -163.5t30.5 -173.5v-144h-784q2 -47 22.5 -87t56.5 -69t82 -45t98 -16q100 0 154 35.5t78 85.5l232 -130q-19 -41 -53.5 -85t-89.5 -80.5t-133.5 -60t-183.5 -23.5 q-121 0 -219.5 38.5t-170.5 111.5t-112 178.5t-40 239.5zM301 1225l181 293h369l181 -293h-261l-92 190h-26l-93 -190h-259zM411 677h503q-13 76 -81 125.5t-170 49.5q-103 0 -168 -52.5t-84 -122.5z" />
<glyph unicode="&#xeb;" d="M127 538v12q0 123 42 224.5t115 172t170.5 110t210.5 39.5q137 0 236 -48t163.5 -122t95 -163.5t30.5 -173.5v-144h-784q2 -47 22.5 -87t56.5 -69t82 -45t98 -16q100 0 154 35.5t78 85.5l232 -130q-19 -41 -53.5 -85t-89.5 -80.5t-133.5 -60t-183.5 -23.5 q-121 0 -219.5 38.5t-170.5 111.5t-112 178.5t-40 239.5zM205 1383q0 43 16.5 81t44.5 64.5t64.5 42.5t79.5 16q41 0 79 -16t65.5 -42.5t44 -64.5t16.5 -81t-16.5 -81t-44 -64.5t-65.5 -43t-79 -16.5q-43 0 -79.5 16.5t-64.5 43t-44.5 64.5t-16.5 81zM411 677h503 q-13 76 -81 125.5t-170 49.5q-103 0 -168 -52.5t-84 -122.5zM718 1383q0 43 16 81t44 64.5t64 42.5t80 16q40 0 78 -16t66 -42.5t44 -64.5t16 -81t-16 -81t-44 -64.5t-66 -43t-78 -16.5q-44 0 -80 16.5t-64 43t-44 64.5t-16 81z" />
<glyph unicode="&#xec;" d="M187 0v258h361v550h-335v259h606v-809h310v-258h-942zM390 1518h288l112 -293h-220z" />
<glyph unicode="&#xed;" d="M187 0v258h361v550h-335v259h606v-809h310v-258h-942zM573 1225l112 293h288l-181 -293h-219z" />
<glyph unicode="&#xee;" d="M187 0v258h361v550h-335v259h606v-809h310v-258h-942zM319 1225l181 293h369l181 -293h-261l-92 190h-26l-93 -190h-259z" />
<glyph unicode="&#xef;" d="M187 0v258h361v550h-335v259h606v-809h310v-258h-942zM230 1383q0 43 16.5 81t44.5 64.5t64.5 42.5t79.5 16q41 0 79 -16t65.5 -42.5t44 -64.5t16.5 -81t-16.5 -81t-44 -64.5t-65.5 -43t-79 -16.5q-43 0 -79.5 16.5t-64.5 43t-44.5 64.5t-16.5 81zM743 1383q0 43 16 81 t44 64.5t64 42.5t80 16q40 0 78 -16t66 -42.5t44 -64.5t16 -81t-16 -81t-44 -64.5t-66 -43t-78 -16.5q-44 0 -80 16.5t-64 43t-44 64.5t-16 81z" />
<glyph unicode="&#xf0;" d="M101 521v25q0 131 38.5 233.5t104.5 173.5t151 107t179 36q101 0 162.5 -23.5t104.5 -74.5h39q-31 75 -84.5 130.5t-128.5 96.5l-27 -81l-210 62l28 91q-35 8 -70 13.5t-72 9.5l43 246q45 -5 88 -12t86 -19l26 82l211 -62l-28 -90q125 -60 215 -147.5t147 -195t84 -233.5 t27 -263q0 -164 -43 -286.5t-118 -205.5t-179.5 -123.5t-227.5 -40.5q-111 0 -210 37.5t-173.5 108.5t-118.5 173.5t-44 231.5zM372 527q0 -142 76 -220.5t201 -78.5t202.5 78.5t77.5 239.5q0 135 -77.5 214t-202.5 79t-201 -82t-76 -217v-13z" />
<glyph unicode="&#xf1;" d="M168 0v1067h271v-160h39q36 91 117.5 140t192.5 49q77 0 144.5 -24.5t119.5 -76t80.5 -131t28.5 -189.5v-675h-271v607q0 114 -55 179.5t-158 65.5q-121 0 -179.5 -81t-58.5 -217v-554h-271zM232 1317l121 155q41 51 86 72.5t98 21.5q43 0 82.5 -19.5t76.5 -62.5 q17 -19 34.5 -35t47.5 -16t48.5 14t35.5 37l65 82l165 -131l-120 -155q-39 -49 -84 -71.5t-102 -22.5q-43 0 -82.5 19.5t-75.5 62.5q-17 19 -34.5 35t-47.5 16q-31 0 -48.5 -14t-35.5 -37l-64 -82z" />
<glyph unicode="&#xf2;" d="M103 521v25q0 131 45 233.5t123 173.5t177.5 107t209.5 36t210 -36t177 -107t122.5 -173.5t45.5 -233.5v-25q0 -134 -45.5 -236t-122.5 -172t-177 -106.5t-210 -36.5q-109 0 -209 36.5t-178 106.5t-123 172t-45 236zM370 1518h288l112 -293h-220zM374 511 q0 -66 22.5 -118.5t61.5 -89t91 -56t109 -19.5q58 0 109.5 19.5t90.5 56t61.5 89t22.5 118.5v43q0 67 -22.5 120t-61.5 89.5t-90.5 56t-109.5 19.5q-57 0 -109 -19.5t-91 -56t-61.5 -89t-22.5 -120.5v-43z" />
<glyph unicode="&#xf3;" d="M103 521v25q0 131 45 233.5t123 173.5t177.5 107t209.5 36t210 -36t177 -107t122.5 -173.5t45.5 -233.5v-25q0 -134 -45.5 -236t-122.5 -172t-177 -106.5t-210 -36.5q-109 0 -209 36.5t-178 106.5t-123 172t-45 236zM374 511q0 -66 22.5 -118.5t61.5 -89t91 -56 t109 -19.5q58 0 109.5 19.5t90.5 56t61.5 89t22.5 118.5v43q0 67 -22.5 120t-61.5 89.5t-90.5 56t-109.5 19.5q-57 0 -109 -19.5t-91 -56t-61.5 -89t-22.5 -120.5v-43zM552 1225l112 293h288l-181 -293h-219z" />
<glyph unicode="&#xf4;" d="M103 521v25q0 131 45 233.5t123 173.5t177.5 107t209.5 36t210 -36t177 -107t122.5 -173.5t45.5 -233.5v-25q0 -134 -45.5 -236t-122.5 -172t-177 -106.5t-210 -36.5q-109 0 -209 36.5t-178 106.5t-123 172t-45 236zM293 1225l181 293h369l181 -293h-261l-92 190h-26 l-93 -190h-259zM374 511q0 -66 22.5 -118.5t61.5 -89t91 -56t109 -19.5q58 0 109.5 19.5t90.5 56t61.5 89t22.5 118.5v43q0 67 -22.5 120t-61.5 89.5t-90.5 56t-109.5 19.5q-57 0 -109 -19.5t-91 -56t-61.5 -89t-22.5 -120.5v-43z" />
<glyph unicode="&#xf5;" d="M103 521v25q0 131 45 233.5t123 173.5t177.5 107t209.5 36t210 -36t177 -107t122.5 -173.5t45.5 -233.5v-25q0 -134 -45.5 -236t-122.5 -172t-177 -106.5t-210 -36.5q-109 0 -209 36.5t-178 106.5t-123 172t-45 236zM228 1317l121 155q41 51 86 72.5t98 21.5 q43 0 82.5 -19.5t76.5 -62.5q17 -19 34.5 -35t47.5 -16t48.5 14t35.5 37l65 82l165 -131l-120 -155q-39 -49 -84 -71.5t-102 -22.5q-43 0 -82.5 19.5t-75.5 62.5q-17 19 -34.5 35t-47.5 16q-31 0 -48.5 -14t-35.5 -37l-64 -82zM374 511q0 -66 22.5 -118.5t61.5 -89t91 -56 t109 -19.5q58 0 109.5 19.5t90.5 56t61.5 89t22.5 118.5v43q0 67 -22.5 120t-61.5 89.5t-90.5 56t-109.5 19.5q-57 0 -109 -19.5t-91 -56t-61.5 -89t-22.5 -120.5v-43z" />
<glyph unicode="&#xf6;" d="M103 521v25q0 131 45 233.5t123 173.5t177.5 107t209.5 36t210 -36t177 -107t122.5 -173.5t45.5 -233.5v-25q0 -134 -45.5 -236t-122.5 -172t-177 -106.5t-210 -36.5q-109 0 -209 36.5t-178 106.5t-123 172t-45 236zM197 1383q0 43 16.5 81t44.5 64.5t64.5 42.5t79.5 16 q41 0 79 -16t65.5 -42.5t44 -64.5t16.5 -81t-16.5 -81t-44 -64.5t-65.5 -43t-79 -16.5q-43 0 -79.5 16.5t-64.5 43t-44.5 64.5t-16.5 81zM374 511q0 -66 22.5 -118.5t61.5 -89t91 -56t109 -19.5q58 0 109.5 19.5t90.5 56t61.5 89t22.5 118.5v43q0 67 -22.5 120t-61.5 89.5 t-90.5 56t-109.5 19.5q-57 0 -109 -19.5t-91 -56t-61.5 -89t-22.5 -120.5v-43zM710 1383q0 43 16 81t44 64.5t64 42.5t80 16q40 0 78 -16t66 -42.5t44 -64.5t16 -81t-16 -81t-44 -64.5t-66 -43t-78 -16.5q-44 0 -80 16.5t-64 43t-44 64.5t-16 81z" />
<glyph unicode="&#xf7;" d="M209 630v246h899v-246h-899zM474 342q0 39 14.5 72t39 59t58.5 40t72 14q39 0 72 -14t58 -40t40 -59t15 -72t-15 -72.5t-40 -59t-58 -39t-72 -13.5q-38 0 -72 13.5t-58.5 39t-39 59t-14.5 72.5zM474 1163q0 39 14.5 72t39 59t58.5 40t72 14q39 0 72 -14t58 -40t40 -59 t15 -72q0 -38 -15 -71.5t-40 -59.5t-58 -39.5t-72 -13.5q-38 0 -72 13.5t-58.5 39.5t-39 59.5t-14.5 71.5z" />
<glyph unicode="&#xf8;" d="M103 521v25q0 131 45 233.5t123 173.5t177.5 107t209.5 36h29t27 -2l41 121l234 -74l-41 -119q117 -66 191 -187t74 -289v-25q0 -134 -45.5 -236t-122.5 -172t-177 -106.5t-210 -36.5q-12 0 -26.5 1t-27.5 1l-40 -130l-237 74l41 127q-117 64 -191 185t-74 293zM374 511 q0 -66 22.5 -117.5t59.5 -87.5l174 531q-109 -9 -182.5 -83.5t-73.5 -199.5v-43zM690 230q107 10 179.5 83.5t72.5 197.5v43q0 125 -78 203z" />
<glyph unicode="&#xf9;" d="M168 400v667h271v-611q0 -115 53.5 -178t161.5 -63q123 0 179.5 78.5t56.5 213.5v560h271v-1067h-271v154h-38q-72 -184 -306 -184q-80 0 -148.5 25.5t-120 79.5t-80.5 134.5t-29 190.5zM364 1518h288l112 -293h-220z" />
<glyph unicode="&#xfa;" d="M168 400v667h271v-611q0 -115 53.5 -178t161.5 -63q123 0 179.5 78.5t56.5 213.5v560h271v-1067h-271v154h-38q-72 -184 -306 -184q-80 0 -148.5 25.5t-120 79.5t-80.5 134.5t-29 190.5zM559 1225l112 293h288l-181 -293h-219z" />
<glyph unicode="&#xfb;" d="M168 400v667h271v-611q0 -115 53.5 -178t161.5 -63q123 0 179.5 78.5t56.5 213.5v560h271v-1067h-271v154h-38q-72 -184 -306 -184q-80 0 -148.5 25.5t-120 79.5t-80.5 134.5t-29 190.5zM291 1225l181 293h369l181 -293h-261l-92 190h-26l-93 -190h-259z" />
<glyph unicode="&#xfc;" d="M168 400v667h271v-611q0 -115 53.5 -178t161.5 -63q123 0 179.5 78.5t56.5 213.5v560h271v-1067h-271v154h-38q-72 -184 -306 -184q-80 0 -148.5 25.5t-120 79.5t-80.5 134.5t-29 190.5zM203 1383q0 43 16.5 81t44.5 64.5t64.5 42.5t79.5 16q41 0 79 -16t65.5 -42.5 t44 -64.5t16.5 -81t-16.5 -81t-44 -64.5t-65.5 -43t-79 -16.5q-43 0 -79.5 16.5t-64.5 43t-44.5 64.5t-16.5 81zM716 1383q0 43 16 81t44 64.5t64 42.5t80 16q40 0 78 -16t66 -42.5t44 -64.5t16 -81t-16 -81t-44 -64.5t-66 -43t-78 -16.5q-44 0 -80 16.5t-64 43t-44 64.5 t-16 81z" />
<glyph unicode="&#xfd;" d="M168 400v667h271v-611q0 -115 53.5 -178t161.5 -63q123 0 179.5 78.5t56.5 213.5v560h271v-1329q0 -74 -46 -121t-120 -47h-634v258h472q57 0 57 65v261h-38q-72 -184 -306 -184q-80 0 -148.5 25.5t-120 79.5t-80.5 134.5t-29 190.5zM559 1225l112 293h288l-181 -293 h-219z" />
<glyph unicode="&#xfe;" d="M103 -456v1962h271v-595h39q43 89 125 137t209 48q94 0 179 -36t148 -106t101 -171.5t38 -230.5v-39q0 -131 -37 -231.5t-99 -170.5t-147 -105.5t-183 -35.5q-74 0 -127.5 15t-93.5 40.5t-66.5 59.5t-46.5 69h-39v-610h-271zM374 521q0 -131 78.5 -212t205.5 -81 t205.5 78.5t78.5 214.5v25q0 135 -78.5 214t-205.5 79t-205.5 -81t-78.5 -212v-25z" />
<glyph unicode="&#xff;" d="M168 400v667h271v-611q0 -115 53.5 -178t161.5 -63q123 0 179.5 78.5t56.5 213.5v560h271v-1329q0 -74 -46 -121t-120 -47h-634v258h472q57 0 57 65v261h-38q-72 -184 -306 -184q-80 0 -148.5 25.5t-120 79.5t-80.5 134.5t-29 190.5zM203 1383q0 43 16.5 81t44.5 64.5 t64.5 42.5t79.5 16q41 0 79 -16t65.5 -42.5t44 -64.5t16.5 -81t-16.5 -81t-44 -64.5t-65.5 -43t-79 -16.5q-43 0 -79.5 16.5t-64.5 43t-44.5 64.5t-16.5 81zM716 1383q0 43 16 81t44 64.5t64 42.5t80 16q40 0 78 -16t66 -42.5t44 -64.5t16 -81t-16 -81t-44 -64.5t-66 -43 t-78 -16.5q-44 0 -80 16.5t-64 43t-44 64.5t-16 81z" />
<glyph unicode="&#x152;" d="M51 615v275q0 293 147.5 454.5t408.5 161.5h653v-271h-370v-345h357v-270h-357v-349h383v-271h-666q-261 0 -408.5 157t-147.5 458zM335 597q0 -152 58.5 -239t213.5 -87v964q-74 0 -125.5 -25.5t-84 -68t-47.5 -102.5t-15 -132v-310z" />
<glyph unicode="&#x153;" d="M94 521v25q0 127 47.5 229.5t126 173.5t181.5 109t218 38h12q127 0 228.5 -38t171.5 -107t106 -162.5t36 -203.5v-181h-413v-168q52 0 94 22.5t62 68.5l218 -138q-64 -117 -190 -168t-308 -51h-13q-109 0 -213.5 36.5t-185.5 106.5t-129.5 172t-48.5 236zM365 533 q0 -107 45.5 -179.5t127.5 -103.5v571q-82 -32 -127.5 -106.5t-45.5 -181.5zM808 663h142q0 71 -38.5 113.5t-103.5 54.5v-168z" />
<glyph unicode="&#x178;" d="M19 1506h310l309 -718h39l310 718h310l-433 -977h-64v-529h-283v529h-65zM197 1813q0 43 16.5 81t44.5 64.5t64.5 42.5t79.5 16q41 0 79 -16t65.5 -42.5t44 -64.5t16.5 -81t-16.5 -81t-44 -64.5t-65.5 -43t-79 -16.5q-43 0 -79.5 16.5t-64.5 43t-44.5 64.5t-16.5 81z M710 1813q0 43 16 81t44 64.5t64 42.5t80 16q40 0 78 -16t66 -42.5t44 -64.5t16 -81t-16 -81t-44 -64.5t-66 -43t-78 -16.5q-44 0 -80 16.5t-64 43t-44 64.5t-16 81z" />
<glyph unicode="&#x2c6;" d="M293 1225l181 293h369l181 -293h-261l-92 190h-26l-93 -190h-259z" />
<glyph unicode="&#x2dc;" d="M228 1327l121 155q41 51 86 72.5t98 21.5q43 0 82.5 -19.5t76.5 -62.5q17 -19 34.5 -35t47.5 -16t48.5 14t35.5 37l65 82l165 -131l-120 -155q-39 -49 -84 -71.5t-102 -22.5q-43 0 -82.5 19.5t-75.5 62.5q-17 19 -34.5 35t-47.5 16q-31 0 -48.5 -14t-35.5 -37l-64 -82z " />
<glyph unicode="&#x2000;" horiz-adv-x="1058" />
<glyph unicode="&#x2001;" horiz-adv-x="2116" />
<glyph unicode="&#x2002;" horiz-adv-x="1058" />
<glyph unicode="&#x2003;" horiz-adv-x="2116" />
<glyph unicode="&#x2004;" horiz-adv-x="705" />
<glyph unicode="&#x2005;" horiz-adv-x="529" />
<glyph unicode="&#x2006;" horiz-adv-x="352" />
<glyph unicode="&#x2007;" horiz-adv-x="352" />
<glyph unicode="&#x2008;" horiz-adv-x="264" />
<glyph unicode="&#x2009;" horiz-adv-x="423" />
<glyph unicode="&#x200a;" horiz-adv-x="117" />
<glyph unicode="&#x2010;" d="M322 468v246h671v-246h-671z" />
<glyph unicode="&#x2011;" d="M322 468v246h671v-246h-671z" />
<glyph unicode="&#x2012;" d="M322 468v246h671v-246h-671z" />
<glyph unicode="&#x2013;" d="M144 468v246h1028v-246h-1028z" />
<glyph unicode="&#x2014;" d="M13 468v246h1290v-246h-1290z" />
<glyph unicode="&#x2018;" d="M454 1079v263q0 82 55 137.5t136 55.5h137v-167h-103q-57 0 -57 -65v-25q8 4 19 5t22 1q90 0 144.5 -57t54.5 -148q0 -43 -15.5 -79t-44 -63.5t-66 -43t-78.5 -15.5q-43 0 -79.5 15.5t-64.5 43t-44 63.5t-16 79z" />
<glyph unicode="&#x2019;" d="M454 1334q0 40 16 77.5t44 65t64.5 43t79.5 15.5q41 0 78.5 -15.5t66 -43t44 -65t15.5 -77.5v-263q0 -82 -54.5 -137.5t-136.5 -55.5h-138v167h103q58 0 59 65v25q-17 -6 -37 -6q-43 0 -79.5 16t-64.5 44t-44 64.5t-16 80.5z" />
<glyph unicode="&#x201a;" d="M454 205q0 41 16 78t44 64t64.5 43t79.5 16q41 0 78.5 -16t66 -43t44 -64.5t15.5 -77.5v-263q0 -82 -54.5 -138t-136.5 -56h-138v168h103q58 0 59 65v25q-17 -6 -37 -6q-43 0 -79.5 16.5t-64.5 44t-44 64.5t-16 80z" />
<glyph unicode="&#x201c;" d="M211 1079v263q0 82 54.5 137.5t136.5 55.5h138v-167h-103q-58 0 -59 -65v-25q8 4 19 5t22 1q90 0 145.5 -57t55.5 -148q0 -43 -16.5 -79t-44.5 -63.5t-65.5 -43t-78.5 -15.5q-43 0 -79.5 15.5t-64.5 43t-44 63.5t-16 79zM697 1079v263q0 82 54.5 137.5t136.5 55.5h138 v-167h-103q-58 0 -59 -65v-25q9 4 20 5t21 1q90 0 145.5 -57t55.5 -148q0 -43 -16.5 -79t-44.5 -63.5t-65.5 -43t-78.5 -15.5q-43 0 -79.5 15.5t-64.5 43t-44 63.5t-16 79z" />
<glyph unicode="&#x201d;" d="M211 1334q0 40 16 77.5t44 65t64.5 43t79.5 15.5q41 0 78.5 -15.5t65.5 -43t44.5 -65t16.5 -77.5v-263q0 -82 -55.5 -137.5t-136.5 -55.5h-138v167h104q58 0 58 65v25q-17 -6 -37 -6q-43 0 -79.5 16t-64.5 44t-44 64.5t-16 80.5zM697 1334q0 40 16 77.5t44 65t64.5 43 t79.5 15.5q41 0 78.5 -15.5t65.5 -43t44.5 -65t16.5 -77.5v-263q0 -82 -55.5 -137.5t-136.5 -55.5h-138v167h104q58 0 58 65v25q-17 -6 -37 -6q-43 0 -79.5 16t-64.5 44t-44 64.5t-16 80.5z" />
<glyph unicode="&#x201e;" d="M211 205q0 41 16 78t44 64t64.5 43t79.5 16q41 0 78.5 -16t65.5 -43t44.5 -64.5t16.5 -77.5v-263q0 -82 -55.5 -138t-136.5 -56h-138v168h104q58 0 58 65v25q-17 -6 -37 -6q-43 0 -79.5 16.5t-64.5 44t-44 64.5t-16 80zM697 205q0 41 16 78t44 64t64.5 43t79.5 16 q41 0 78.5 -16t65.5 -43t44.5 -64.5t16.5 -77.5v-263q0 -82 -55.5 -138t-136.5 -56h-138v168h104q58 0 58 65v25q-17 -6 -37 -6q-43 0 -79.5 16.5t-64.5 44t-44 64.5t-16 80z" />
<glyph unicode="&#x2022;" d="M349 753q0 64 24.5 120t66.5 98t97.5 67t120.5 25q64 0 120.5 -25t98 -67t66.5 -98t25 -120t-25 -120.5t-66.5 -98.5t-98 -66.5t-120.5 -24.5t-120 24.5t-98 66.5t-66.5 98.5t-24.5 120.5z" />
<glyph unicode="&#x2026;" d="M45 174q0 43 16.5 81t44 64.5t64.5 42.5t80 16q41 0 78 -16t65 -42.5t44.5 -64.5t16.5 -81q0 43 16 81t44 64.5t64.5 42.5t79.5 16q41 0 78.5 -16t66 -42.5t44 -64.5t15.5 -81t-15.5 -80.5t-44 -64.5t-66 -43t-78.5 -16q-43 0 -79.5 16t-64.5 43t-44 64.5t-16 80.5 q0 -43 -16.5 -80.5t-44.5 -64.5t-65.5 -43t-77.5 -16q-43 0 -80 16t-64.5 43t-44 64.5t-16.5 80.5zM862 174q0 43 16.5 81t44 64.5t64.5 42.5t80 16q41 0 78 -16t65.5 -42.5t44 -64.5t15.5 -81t-15.5 -80.5t-44 -64.5t-65.5 -43t-78 -16q-43 0 -80 16t-64.5 43t-44 64.5 t-16.5 80.5z" />
<glyph unicode="&#x202f;" horiz-adv-x="423" />
<glyph unicode="&#x2030;" d="M39 576l1015 520l87 -167l-1014 -521zM39 1209q0 77 27.5 136t74 101t106 63.5t121.5 21.5q61 0 120.5 -21.5t105.5 -63.5t74.5 -101t28.5 -136q0 -78 -28.5 -137t-74.5 -101t-105 -63.5t-121 -21.5t-121.5 21.5t-106 63.5t-74 101t-27.5 137zM232 1209q0 -70 41 -106 t95 -36q53 0 94 36t41 106q0 69 -41 105t-94 36q-54 0 -95 -36t-41 -105zM523 207v180q0 103 61 168t171 65q43 0 76 -14.5t57 -37.5h26q24 24 57 38t76 14q109 0 170 -65t61 -168v-180q0 -103 -60.5 -168t-170.5 -65q-43 0 -76 14t-57 38h-26q-24 -24 -57 -38t-76 -14 q-109 0 -170.5 64.5t-61.5 168.5zM710 207q0 -31 15 -45t34 -14t33 14t14 45v180q0 31 -14 44.5t-33 13.5t-34 -14t-15 -44v-180zM993 207q0 -31 15.5 -45t34.5 -14t33 14t14 45v180q0 31 -13.5 44.5t-33.5 13.5q-19 0 -34.5 -14t-15.5 -44v-180z" />
<glyph unicode="&#x2039;" d="M387 327v413l529 327h13v-306l-375 -209v-39l375 -207v-306h-13z" />
<glyph unicode="&#x203a;" d="M387 0v306l374 207v39l-374 209v306h13l529 -327v-413l-529 -327h-13z" />
<glyph unicode="&#x2044;" d="M105 576l1015 520l89 -167l-1016 -521z" />
<glyph unicode="&#x205f;" horiz-adv-x="529" />
<glyph unicode="&#x2070;" d="M421 1099v194q0 98 63.5 161.5t173.5 63.5t173.5 -63.5t63.5 -161.5v-194q0 -98 -63.5 -162t-173.5 -64q-109 0 -173 63.5t-64 162.5zM589 1110q0 -37 16.5 -59.5t52.5 -22.5q37 0 53 22.5t16 59.5v172q0 37 -16 59t-53 22q-36 0 -52.5 -22.5t-16.5 -58.5v-172z" />
<glyph unicode="&#x2074;" d="M408 989v209l151 308h297v-367h90v-150h-90v-103h-168v103h-280zM559 1139h129v254h-19l-110 -234v-20z" />
<glyph unicode="&#x2075;" d="M439 1075h168q2 -19 17.5 -35t48.5 -16q37 0 52 20.5t15 47.5q0 26 -14 44.5t-45 18.5q-34 0 -45 -24h-197v375h429v-152h-261v-98h19q34 51 114 51q70 0 118.5 -50.5t48.5 -146.5q0 -103 -57.5 -170t-174.5 -67q-123 0 -179.5 62.5t-56.5 139.5z" />
<glyph unicode="&#x2076;" d="M430 1088v211q0 51 18 92t49.5 69t72.5 43t84 15q95 0 157 -54t67 -144h-168q-2 19 -15.5 33.5t-40.5 14.5q-28 0 -42.5 -16t-14.5 -41v-86h20q31 52 101 53q72 0 120 -49t48 -137q0 -101 -65.5 -160t-162.5 -59q-92 0 -160 57t-68 158zM597 1075q0 -24 17.5 -35.5 t43.5 -11.5q27 0 43.5 11.5t16.5 35.5t-16.5 35.5t-43.5 11.5q-26 0 -43.5 -11.5t-17.5 -35.5z" />
<glyph unicode="&#x2077;" d="M466 1350v156h426v-226l-184 -285q-17 -24 -26 -41.5t-9 -42.5v-25h-172v32q0 34 14 61t39 66l190 286v19h-278z" />
<glyph unicode="&#x2078;" d="M430 1058q0 62 32.5 95t68.5 45v17q-30 10 -59 40.5t-29 92.5q0 78 62.5 124t152.5 46q91 0 153 -46t62 -124q0 -62 -29 -92.5t-59 -40.5v-17q37 -10 69 -44t32 -96q0 -49 -20.5 -83.5t-53 -57t-73 -33.5t-81.5 -11q-43 0 -84 11t-73.5 33.5t-51.5 57t-19 83.5zM597 1079 q1 -51 61 -51t60 51q0 52 -60 52t-61 -52zM611 1325q0 -19 13.5 -31t33.5 -12q19 0 33.5 11.5t14.5 31.5q0 19 -14.5 31t-33.5 12t-33 -12t-14 -31z" />
<glyph unicode="&#x2079;" d="M430 1303q0 101 63 158t165 57q97 0 162.5 -57t65.5 -158v-211q0 -51 -18.5 -92t-49 -69t-71.5 -43t-84 -15q-95 0 -159.5 51.5t-64.5 142.5h168q0 -43 56 -43q30 0 42.5 18t12.5 42v69h-19q-10 -19 -33 -31t-62 -12q-78 0 -126 54.5t-48 138.5zM597 1311 q0 -24 17.5 -37.5t43.5 -13.5q27 0 43.5 14t16.5 37q0 25 -17 38.5t-43 13.5t-43.5 -13.5t-17.5 -38.5z" />
<glyph unicode="&#x2080;" d="M421 -21q0 98 63.5 161.5t173.5 63.5t173.5 -63.5t63.5 -161.5v-194q0 -98 -63.5 -162t-173.5 -64q-109 0 -173 63.5t-64 162.5v194zM589 -32v-172q0 -37 16.5 -59.5t52.5 -22.5q37 0 53 22.5t16 59.5v172q0 37 -16 59t-53 22q-36 0 -52.5 -22.5t-16.5 -58.5z" />
<glyph unicode="&#x2081;" d="M426 78l155 117h193v-465h155v-155h-490v155h168v284h-14l-154 -129h-13v193z" />
<glyph unicode="&#x2082;" d="M430 -12q0 101 64.5 160t178.5 59q101 0 161.5 -58t60.5 -135q0 -88 -43.5 -134.5t-111.5 -63.5q-84 -25 -113.5 -39.5t-29.5 -46.5h291v-155h-458v142q0 47 16 83t43.5 60.5t60.5 39t70 24.5q71 17 89 33t18 39q0 24 -16 40t-46 16q-67 0 -68 -77h-167v13z" />
<glyph unicode="&#x2083;" d="M430 -213h167v-13q0 -31 17.5 -45.5t48.5 -14.5q30 0 47 15t17 45q0 64 -73 65h-57v150l100 33v18h-248v152h415v-211l-99 -37v-19q50 -11 90 -49.5t40 -110.5q0 -92 -60.5 -149t-163.5 -57q-123 0 -182 62.5t-59 139.5v26z" />
<glyph unicode="&#x2084;" d="M408 -116l151 308h297v-367h90v-150h-90v-103h-168v103h-280v209zM559 -155v-20h129v254h-19z" />
<glyph unicode="&#x2085;" d="M439 -183v375h429v-152h-261v-98h19q34 51 114 51q70 0 118.5 -50.5t48.5 -146.5q0 -103 -57.5 -170t-174.5 -67q-123 0 -179.5 62.5t-56.5 139.5h168q2 -19 17.5 -35t48.5 -16q37 0 52 20.5t15 47.5q0 26 -14 44.5t-45 18.5q-34 0 -45 -24h-197z" />
<glyph unicode="&#x2086;" d="M430 -15q0 51 18 92t49.5 69t72.5 43t84 15q95 0 157 -54t67 -144h-168q-2 19 -15.5 33.5t-40.5 14.5q-28 0 -42.5 -16t-14.5 -41v-86h20q31 52 101 53q72 0 120 -49t48 -137q0 -101 -65.5 -160t-162.5 -59q-92 0 -160 57t-68 158v211zM597 -239q0 -24 17.5 -35.5 t43.5 -11.5q27 0 43.5 11.5t16.5 35.5t-16.5 35.5t-43.5 11.5q-26 0 -43.5 -11.5t-17.5 -35.5z" />
<glyph unicode="&#x2087;" d="M466 36v156h426v-226l-184 -285q-17 -24 -26 -41.5t-9 -42.5v-25h-172v32q0 34 14 61t39 66l190 286v19h-278z" />
<glyph unicode="&#x2088;" d="M430 -256q0 62 32.5 95t68.5 45v17q-30 10 -59 40.5t-29 92.5q0 78 62.5 124t152.5 46q91 0 153 -46t62 -124q0 -62 -29 -92.5t-59 -40.5v-17q37 -10 69 -44t32 -96q0 -49 -20.5 -83.5t-53 -57t-73 -33.5t-81.5 -11q-43 0 -84 11t-73.5 33.5t-51.5 57t-19 83.5zM597 -235 q1 -51 61 -51t60 51q0 52 -60 52t-61 -52zM611 11q0 -19 13.5 -31t33.5 -12q19 0 33.5 11.5t14.5 31.5q0 19 -14.5 31t-33.5 12t-33 -12t-14 -31z" />
<glyph unicode="&#x2089;" d="M430 -11q0 101 63 158t165 57q97 0 162.5 -57t65.5 -158v-211q0 -51 -18.5 -92t-49 -69t-71.5 -43t-84 -15q-95 0 -159.5 51.5t-64.5 142.5h168q0 -43 56 -43q30 0 42.5 18t12.5 42v69h-19q-10 -19 -33 -31t-62 -12q-78 0 -126 54.5t-48 138.5zM597 -3q0 -24 17.5 -37.5 t43.5 -13.5q27 0 43.5 14t16.5 37q0 25 -17 38.5t-43 13.5t-43.5 -13.5t-17.5 -38.5z" />
<glyph unicode="&#x20ac;" d="M69 509v207h103v64h-103v207h144q33 78 84.5 138.5t119 102.5t145.5 65t165 23q103 0 191 -30t155.5 -83.5t110.5 -129t59 -166.5l-241 -55q-9 47 -28.5 89t-51.5 74t-80 50.5t-115 18.5q-70 0 -126.5 -26t-99.5 -71h230v-207h-314v-64h314v-207h-228q88 -88 228 -88 q66 0 113.5 20.5t80 53t51.5 74.5t30 85l241 -57q-16 -90 -61 -165t-112.5 -128.5t-157 -84t-194.5 -30.5q-172 0 -309.5 83t-199.5 237h-144z" />
<glyph unicode="&#x2122;" d="M64 1350v156h490v-156h-160v-464h-168v464h-162zM607 886v620h283l26 -427v-77h26v77l26 427h284v-620h-164v503h-25v-78l-31 -425h-207l-29 425v78h-26v-503h-163z" />
<glyph unicode="&#x2153;" d="M102 1196v193l155 117h193v-465h155v-155h-490v155h168v284h-14l-154 -129h-13zM115 576l1015 520l89 -167l-1016 -521zM759 191v26h167v-13q0 -31 17.5 -45.5t48.5 -14.5q30 0 47 15t17 45q0 64 -73 65h-57v150l100 33v18h-248v152h415v-211l-99 -37v-19 q50 -11 90 -49.5t40 -110.5q0 -92 -60.5 -149t-163.5 -57q-123 0 -182 62.5t-59 139.5z" />
<glyph unicode="&#x2154;" d="M111 576l1015 520l89 -167l-1016 -521zM114 886v142q0 47 16 83t43.5 60.5t60.5 39t70 24.5q71 17 89 33t18 39q0 24 -16 40t-46 16q-67 0 -68 -77h-167v13q0 101 64.5 160t178.5 59q101 0 161.5 -58t60.5 -135q0 -88 -43.5 -134.5t-111.5 -63.5q-84 -25 -113.5 -39.5 t-29.5 -46.5h291v-155h-458zM754 191v26h167v-13q0 -31 17.5 -45.5t48.5 -14.5q30 0 47 15t17 45q0 64 -73 65h-57v150l100 33v18h-248v152h415v-211l-99 -37v-19q50 -11 90 -49.5t40 -110.5q0 -92 -60.5 -149t-163.5 -57q-123 0 -182 62.5t-59 139.5z" />
<glyph unicode="&#x215b;" d="M110 1196v193l155 117h193v-465h155v-155h-490v155h168v284h-14l-154 -129h-13zM124 576l1015 520l89 -167l-1016 -521zM772 174q0 62 32.5 95t68.5 45v17q-30 10 -59 40.5t-29 92.5q0 78 62.5 124t152.5 46q91 0 153 -46t62 -124q0 -62 -29 -92.5t-59 -40.5v-17 q37 -10 69 -44t32 -96q0 -49 -20.5 -83.5t-53 -57t-73 -33.5t-81.5 -11q-43 0 -84 11t-73.5 33.5t-51.5 57t-19 83.5zM939 195q1 -51 61 -51t60 51q0 52 -60 52t-61 -52zM953 441q0 -19 13.5 -31t33.5 -12q19 0 33.5 11.5t14.5 31.5q0 19 -14.5 31t-33.5 12t-33 -12t-14 -31 z" />
<glyph unicode="&#x215c;" d="M97 1075v26h167v-13q0 -31 17.5 -45.5t48.5 -14.5q30 0 47 15t17 45q0 64 -73 65h-57v150l100 33v18h-248v152h415v-211l-99 -37v-19q50 -11 90 -49.5t40 -110.5q0 -92 -60.5 -149t-163.5 -57q-123 0 -182 62.5t-59 139.5zM109 576l1015 520l89 -167l-1016 -521zM757 174 q0 62 32.5 95t68.5 45v17q-30 10 -59 40.5t-29 92.5q0 78 62.5 124t152.5 46q91 0 153 -46t62 -124q0 -62 -29 -92.5t-59 -40.5v-17q37 -10 69 -44t32 -96q0 -49 -20.5 -83.5t-53 -57t-73 -33.5t-81.5 -11q-43 0 -84 11t-73.5 33.5t-51.5 57t-19 83.5zM924 195q1 -51 61 -51 t60 51q0 52 -60 52t-61 -52zM938 441q0 -19 13.5 -31t33.5 -12q19 0 33.5 11.5t14.5 31.5q0 19 -14.5 31t-33.5 12t-33 -12t-14 -31z" />
<glyph unicode="&#x215d;" d="M112 1075h168q2 -19 17.5 -35t48.5 -16q37 0 52 20.5t15 47.5q0 26 -14 44.5t-45 18.5q-34 0 -45 -24h-197v375h429v-152h-261v-98h19q34 51 114 51q70 0 118.5 -50.5t48.5 -146.5q0 -103 -57.5 -170t-174.5 -67q-123 0 -179.5 62.5t-56.5 139.5zM113 576l1015 520 l89 -167l-1016 -521zM761 174q0 62 32.5 95t68.5 45v17q-30 10 -59 40.5t-29 92.5q0 78 62.5 124t152.5 46q91 0 153 -46t62 -124q0 -62 -29 -92.5t-59 -40.5v-17q37 -10 69 -44t32 -96q0 -49 -20.5 -83.5t-53 -57t-73 -33.5t-81.5 -11q-43 0 -84 11t-73.5 33.5t-51.5 57 t-19 83.5zM928 195q1 -51 61 -51t60 51q0 52 -60 52t-61 -52zM942 441q0 -19 13.5 -31t33.5 -12q19 0 33.5 11.5t14.5 31.5q0 19 -14.5 31t-33.5 12t-33 -12t-14 -31z" />
<glyph unicode="&#x215e;" d="M99 576l1015 520l89 -167l-1016 -521zM160 1350v156h426v-226l-184 -285q-17 -24 -26 -41.5t-9 -42.5v-25h-172v32q0 34 14 61t39 66l190 286v19h-278zM744 174q0 62 32.5 95t68.5 45v17q-30 10 -59 40.5t-29 92.5q0 78 62.5 124t152.5 46q91 0 153 -46t62 -124 q0 -62 -29 -92.5t-59 -40.5v-17q37 -10 69 -44t32 -96q0 -49 -20.5 -83.5t-53 -57t-73 -33.5t-81.5 -11q-43 0 -84 11t-73.5 33.5t-51.5 57t-19 83.5zM911 195q1 -51 61 -51t60 51q0 52 -60 52t-61 -52zM925 441q0 -19 13.5 -31t33.5 -12q19 0 33.5 11.5t14.5 31.5 q0 19 -14.5 31t-33.5 12t-33 -12t-14 -31z" />
<glyph unicode="&#x2190;" d="M51 538v430l339 335l174 -174l-209 -208l-148 -61l15 -37l133 53h909v-246h-909l-133 51l-15 -36l148 -60l209 -209l-174 -173z" />
<glyph unicode="&#x2191;" d="M107 1022l336 337h430l336 -337l-175 -175l-209 209l-60 148l-36 -14l51 -134v-910h-244v910l51 134l-37 14l-60 -148l-209 -209z" />
<glyph unicode="&#x2192;" d="M51 630v246h910l133 -53l16 37l-149 61l-208 208l174 174l337 -335v-430l-337 -335l-174 173l208 209l149 60l-16 36l-133 -51h-910z" />
<glyph unicode="&#x2193;" d="M107 484l174 174l209 -209l60 -148l37 15l-51 133v910h244v-910l-51 -133l36 -15l60 148l209 209l175 -174l-336 -338h-430z" />
<glyph unicode="&#x2196;" d="M109 552v478l304 304h477v-248h-297l-146 63l-14 -37l131 -58l642 -643l-174 -175l-642 644l-59 131l-36 -16l62 -146v-297h-248z" />
<glyph unicode="&#x2197;" d="M109 411l644 643l131 58l-16 37l-146 -63h-296v248h477l303 -304v-478h-247v297l63 146l-37 16l-58 -131l-643 -644z" />
<glyph unicode="&#x2198;" d="M109 1159l175 175l643 -644l58 -131l37 15l-63 146v297h247v-477l-303 -304h-477v248h296l146 -63l16 37l-131 59z" />
<glyph unicode="&#x2199;" d="M109 540v477h248v-297l-62 -146l36 -15l59 131l642 644l174 -175l-642 -642l-131 -59l14 -37l146 63h297v-248h-477z" />
<glyph unicode="&#x25fc;" horiz-adv-x="1063" d="M0 0v1065h1065v-1065h-1065z" />
<glyph d="M103 521v25q0 131 45 233.5t123 173.5t177.5 107t209.5 36t210 -36t177 -107t122.5 -173.5t45.5 -233.5v-25q0 -134 -45.5 -236t-122.5 -172t-177 -106.5t-210 -36.5q-109 0 -209 36.5t-178 106.5t-123 172t-45 236zM387 521q0 -129 77.5 -205t193.5 -76q117 0 194 76 t77 205v25q0 129 -77.5 204t-193.5 75t-193.5 -75t-77.5 -204v-25zM503 533q0 62 46 108.5t109 46.5q62 0 108.5 -46.5t46.5 -108.5t-46.5 -108.5t-108.5 -46.5t-108.5 46.5t-46.5 108.5z" />
<glyph d="M150 589v26l168 452h542v-796h349v-271h-1033v271h400v654h-38l-117 -336h-271z" />
<glyph d="M164 788q64 154 200.5 231t310.5 77q111 0 198.5 -29t149 -78t94 -115t32.5 -139q0 -69 -19.5 -125t-64.5 -100t-121 -73t-189 -41q-71 -9 -126 -16.5t-93.5 -18t-59 -29t-20.5 -48.5v-13h679v-271h-963v240q0 185 103 273.5t314 106.5q90 6 144.5 16.5t83 25.5t38 32.5 t9.5 40.5q0 49 -54.5 76.5t-142.5 27.5q-95 0 -164.5 -39t-102.5 -121z" />
<glyph d="M103 90l284 52q11 -146 82 -224t206 -78q107 0 161 58.5t54 152.5q0 101 -59 147.5t-160 46.5h-168v413l349 99v39h-698v271h942v-456l-361 -108v-39h39q80 0 153 -28t128 -81.5t87 -130t32 -173.5v-12q0 -101 -34 -187t-99 -148.5t-160.5 -98t-217.5 -35.5 q-125 0 -225 37.5t-172.5 105.5t-114.5 163.5t-48 213.5z" />
<glyph d="M99 0v400l404 667h542v-796h194v-271h-194v-417h-284v417h-662zM344 271h417v654h-39l-378 -615v-39z" />
<glyph d="M111 39l289 64q6 -54 25.5 -101t53.5 -83t86 -57.5t123 -21.5q129 0 195.5 75t66.5 196q0 123 -53.5 186.5t-143.5 63.5q-62 0 -101 -26.5t-50 -63.5h-464v796h993v-271h-714v-370h39q30 84 115 145t225 61q105 0 187 -36.5t137.5 -101t85 -154.5t29.5 -198v-13 q0 -114 -34.5 -216t-102.5 -178.5t-170.5 -120.5t-239.5 -44q-132 0 -233.5 35.5t-173.5 98t-115 148.5t-55 187z" />
<glyph d="M123 466v549q0 121 42 217.5t115 164.5t169.5 103t204.5 35q218 0 350.5 -107.5t163.5 -309.5l-280 -43q-8 78 -63 133.5t-171 55.5q-114 0 -181 -67.5t-67 -176.5v-195h39q37 76 116 122t188 46q92 0 173.5 -33t142 -94.5t95 -149.5t34.5 -199v-27q0 -114 -38 -209.5 t-107.5 -164.5t-169 -107.5t-221.5 -38.5q-111 0 -209 35.5t-170 101t-114 157t-42 202.5zM406 482q0 -109 71.5 -175.5t180.5 -66.5q110 0 180.5 66t70.5 176q0 109 -70.5 174.5t-180.5 65.5q-109 0 -180.5 -65.5t-71.5 -174.5z" />
<glyph d="M129 796v271h1045v-443l-522 -774q-43 -64 -68 -111t-25 -104v-52h-305v64q0 43 6.5 79t20.5 70t37.5 73t57.5 88l540 800v39h-787z" />
<glyph d="M109 392v12q0 80 22.5 140t60.5 103t85 71.5t99 42.5v39q-45 17 -86.5 45t-73 67.5t-50 95t-18.5 123.5v13q0 93 43 166t114 123.5t162.5 76t190.5 25.5t190.5 -25.5t162.5 -76t114 -123.5t43 -166v-13q0 -69 -18.5 -124t-49.5 -94.5t-73 -67.5t-87 -45v-39 q51 -14 98.5 -42.5t85 -71.5t60 -103t22.5 -140v-12q0 -95 -38.5 -172.5t-109.5 -132t-173 -86t-227 -31.5q-127 0 -228 31.5t-172 87t-110 132t-39 171.5zM394 443q0 -88 68.5 -145.5t195.5 -57.5t196 57.5t69 145.5t-69 145t-196 57t-195.5 -57t-68.5 -145zM433 1090 q0 -76 64.5 -125t160.5 -49q97 0 161.5 49.5t64.5 124.5q0 76 -64.5 125t-161.5 49q-96 0 -160.5 -49t-64.5 -125z" />
<glyph d="M123 564v25q0 107 38.5 201t108.5 162t170 106t223 38q111 0 209 -36t169 -102t112 -157t41 -201v-510q0 -127 -38 -223.5t-106.5 -162t-166.5 -100t-216 -34.5q-99 0 -185 22.5t-154 67.5t-114 110.5t-66 151.5l269 91q19 -76 78 -126.5t163 -50.5q121 0 186 70t65 180 v154h-39q-30 -75 -98 -120.5t-196 -45.5q-96 0 -179 35t-144.5 99.5t-95.5 155t-34 200.5zM406 585q0 -109 71 -175t181 -66t180.5 66t70.5 175t-70.5 174.5t-180.5 65.5q-109 0 -180.5 -65t-71.5 -175z" />
<glyph d="M189 0v1506h558q107 0 190 -30.5t139.5 -82t86 -123.5t29.5 -156v-26q0 -129 -72.5 -206.5t-181.5 -107.5v-39q109 -30 181.5 -108.5t72.5 -207.5v-25q0 -84 -29.5 -156t-86 -125t-139.5 -83t-190 -30h-558zM474 271h244q90 0 146.5 39t56.5 129v13q0 90 -56.5 129 t-146.5 39h-244v-349zM474 890h244q90 0 146.5 38t56.5 128v13q0 90 -56.5 128t-146.5 38h-244v-345z" />
<glyph d="M176 0v1506h431q279 0 414.5 -130.5t135.5 -403.5v-439q0 -273 -135.5 -403t-414.5 -130h-431zM460 271h147q148 0 207 70t59 218v413q0 129 -59 196t-207 67h-147v-964z" />
<glyph d="M69 624v258h142v624h429q280 0 416 -130.5t136 -403.5v-439q0 -273 -135.5 -403t-416.5 -130h-429v624h-142zM495 271h145q149 0 208 70t59 218v413q0 129 -58.5 196t-208.5 67h-145v-353h211v-258h-211v-353z" />
<glyph d="M164 452v141h283v-141q0 -101 56 -158.5t157 -57.5q95 0 147.5 56.5t52.5 159.5v1054h284v-1054q0 -235 -127 -358.5t-348 -123.5q-115 0 -207 31.5t-159 92t-103 150t-36 208.5z" />
<glyph d="M142 306v12q0 78 29 140.5t78.5 107.5t116.5 68.5t141 23.5h289v13q0 69 -49.5 118.5t-144.5 49.5q-72 0 -125.5 -35.5t-76.5 -93.5l-219 133q24 47 62 93.5t93.5 82t126 56.5t159.5 21q92 0 174 -30t142 -84.5t94.5 -130t34.5 -167.5v-362q0 -64 58 -64h67v-258h-168 q-78 0 -131.5 33t-57.5 109h-39q-26 -78 -92 -125t-187 -47q-93 0 -163 25.5t-117.5 70.5t-71 106.5t-23.5 133.5zM426 331q0 -45 33 -74t109 -29q107 0 167.5 57t60.5 141h-254q-58 0 -87 -28t-29 -67z" />
<glyph d="M142 306v12q0 78 29 140.5t78.5 107.5t116.5 68.5t141 23.5h289v13q0 69 -49.5 118.5t-144.5 49.5q-72 0 -125.5 -35.5t-76.5 -93.5l-219 133q24 47 62 93.5t93.5 82t126 56.5t159.5 21q92 0 174 -30t142 -84.5t94.5 -130t34.5 -167.5v-362q0 -64 58 -64h67v-258h-168 q-78 0 -131.5 33t-57.5 109h-39q-26 -78 -92 -125t-187 -47q-93 0 -163 25.5t-117.5 70.5t-71 106.5t-23.5 133.5zM426 331q0 -45 33 -74t109 -29q107 0 167.5 57t60.5 141h-254q-58 0 -87 -28t-29 -67zM511 1225l112 293h288l-181 -293h-219z" />
<glyph d="M142 306v12q0 78 29 140.5t78.5 107.5t116.5 68.5t141 23.5h289v13q0 69 -49.5 118.5t-144.5 49.5q-72 0 -125.5 -35.5t-76.5 -93.5l-219 133q24 47 62 93.5t93.5 82t126 56.5t159.5 21q92 0 174 -30t142 -84.5t94.5 -130t34.5 -167.5v-362q0 -64 58 -64h67v-258h-168 q-78 0 -131.5 33t-57.5 109h-39q-26 -78 -92 -125t-187 -47q-93 0 -163 25.5t-117.5 70.5t-71 106.5t-23.5 133.5zM333 1518h288l112 -293h-220zM426 331q0 -45 33 -74t109 -29q107 0 167.5 57t60.5 141h-254q-58 0 -87 -28t-29 -67z" />
<glyph d="M142 306v12q0 78 29 140.5t78.5 107.5t116.5 68.5t141 23.5h289v13q0 69 -49.5 118.5t-144.5 49.5q-72 0 -125.5 -35.5t-76.5 -93.5l-219 133q24 47 62 93.5t93.5 82t126 56.5t159.5 21q92 0 174 -30t142 -84.5t94.5 -130t34.5 -167.5v-362q0 -64 58 -64h67v-258h-168 q-78 0 -131.5 33t-57.5 109h-39q-26 -78 -92 -125t-187 -47q-93 0 -163 25.5t-117.5 70.5t-71 106.5t-23.5 133.5zM258 1225l181 293h369l181 -293h-261l-92 190h-26l-93 -190h-259zM426 331q0 -45 33 -74t109 -29q107 0 167.5 57t60.5 141h-254q-58 0 -87 -28t-29 -67z" />
<glyph d="M142 306v12q0 78 29 140.5t78.5 107.5t116.5 68.5t141 23.5h289v13q0 69 -49.5 118.5t-144.5 49.5q-72 0 -125.5 -35.5t-76.5 -93.5l-219 133q24 47 62 93.5t93.5 82t126 56.5t159.5 21q92 0 174 -30t142 -84.5t94.5 -130t34.5 -167.5v-362q0 -64 58 -64h67v-258h-168 q-78 0 -131.5 33t-57.5 109h-39q-26 -78 -92 -125t-187 -47q-93 0 -163 25.5t-117.5 70.5t-71 106.5t-23.5 133.5zM162 1383q0 43 16.5 81t44.5 64.5t64.5 42.5t79.5 16q41 0 79 -16t65.5 -42.5t44 -64.5t16.5 -81t-16.5 -81t-44 -64.5t-65.5 -43t-79 -16.5 q-43 0 -79.5 16.5t-64.5 43t-44.5 64.5t-16.5 81zM426 331q0 -45 33 -74t109 -29q107 0 167.5 57t60.5 141h-254q-58 0 -87 -28t-29 -67zM675 1383q0 43 16 81t44 64.5t64 42.5t80 16q40 0 78 -16t66 -42.5t44 -64.5t16 -81t-16 -81t-44 -64.5t-66 -43t-78 -16.5 q-44 0 -80 16.5t-64 43t-44 64.5t-16 81z" />
<glyph d="M142 306v12q0 78 29 140.5t78.5 107.5t116.5 68.5t141 23.5h289v13q0 69 -49.5 118.5t-144.5 49.5q-72 0 -125.5 -35.5t-76.5 -93.5l-219 133q24 47 62 93.5t93.5 82t126 56.5t159.5 21q92 0 174 -30t142 -84.5t94.5 -130t34.5 -167.5v-362q0 -64 58 -64h67v-258h-168 q-78 0 -131.5 33t-57.5 109h-39q-26 -78 -92 -125t-187 -47q-93 0 -163 25.5t-117.5 70.5t-71 106.5t-23.5 133.5zM193 1317l121 155q41 51 86 72.5t98 21.5q43 0 82.5 -19.5t76.5 -62.5q17 -19 34.5 -35t47.5 -16t48.5 14t35.5 37l65 82l165 -131l-120 -155 q-39 -49 -84 -71.5t-102 -22.5q-43 0 -82.5 19.5t-75.5 62.5q-17 19 -34.5 35t-47.5 16q-31 0 -48.5 -14t-35.5 -37l-64 -82zM426 331q0 -45 33 -74t109 -29q107 0 167.5 57t60.5 141h-254q-58 0 -87 -28t-29 -67z" />
<glyph d="M142 306v12q0 78 29 140.5t78.5 107.5t116.5 68.5t141 23.5h289v13q0 69 -49.5 118.5t-144.5 49.5q-72 0 -125.5 -35.5t-76.5 -93.5l-219 133q24 47 62 93.5t93.5 82t126 56.5t159.5 21q92 0 174 -30t142 -84.5t94.5 -130t34.5 -167.5v-362q0 -64 58 -64h67v-258h-168 q-78 0 -131.5 33t-57.5 109h-39q-26 -78 -92 -125t-187 -47q-93 0 -163 25.5t-117.5 70.5t-71 106.5t-23.5 133.5zM391 1453q0 47 18 90.5t49.5 75t73.5 49.5t91 18q48 0 91 -18t74 -49.5t49 -74t18 -91.5t-18 -91t-49 -73t-74 -49.5t-91 -18.5q-49 0 -91 18.5t-73.5 49.5 t-49.5 73t-18 91zM426 331q0 -45 33 -74t109 -29q107 0 167.5 57t60.5 141h-254q-58 0 -87 -28t-29 -67zM558 1453q0 -28 18.5 -46t46.5 -18q29 0 46.5 18.5t17.5 45.5q0 29 -18 47t-46 18t-46.5 -18t-18.5 -47z" />
<glyph d="M176 -160q0 72 31 124.5t90 78.5v39q-43 17 -73.5 55.5t-30.5 107.5q0 64 33.5 106.5t76.5 61.5v39q-28 32 -56 92t-28 144v13q0 93 32.5 166t88.5 124.5t133 78t167 26.5q44 0 87 -8.5t73 -20.5h351v-246h-149v-39q24 -26 35.5 -64.5t11.5 -81.5q0 -69 -28 -131 t-80.5 -109t-129 -75t-171.5 -28q-69 0 -105 10.5t-67 23.5q-19 -5 -35 -16.5t-16 -37.5q0 -54 69 -54h318q82 0 146.5 -25.5t109 -69.5t68 -101.5t23.5 -116.5v-13q0 -62 -21.5 -120.5t-63.5 -103.5t-104.5 -72t-144.5 -27h-318q-160 0 -241.5 74.5t-81.5 195.5zM447 -99 q0 -73 93 -73h248q92 0 92 73q0 74 -92 73h-248q-93 0 -93 -73zM488 697q0 -69 44 -106t108 -37q65 0 109.5 37t44.5 106t-44.5 105.5t-109.5 36.5q-64 0 -108 -37t-44 -105z" />
<glyph d="M273 808v259h645v-1067h-271v808h-374zM576 1383q0 43 16.5 81t44.5 64.5t64 42.5t79 16q41 0 79 -16t65.5 -42.5t44 -64.5t16.5 -81t-16.5 -81t-44 -64.5t-65.5 -43t-79 -16.5q-43 0 -79 16.5t-64 43t-44.5 64.5t-16.5 81z" />
<glyph d="M273 808v259h645v-1067h-271v808h-374zM653 1225l112 293h288l-181 -293h-219z" />
<glyph d="M273 808v259h645v-1067h-271v808h-374zM473 1518h288l112 -293h-220z" />
<glyph d="M227 1225l181 293h369l181 -293h-261l-92 190h-26l-93 -190h-259zM273 808v259h645v-1067h-271v808h-374z" />
<glyph d="M131 1383q0 43 16.5 81t44.5 64.5t64.5 42.5t79.5 16q41 0 79 -16t65.5 -42.5t44 -64.5t16.5 -81t-16.5 -81t-44 -64.5t-65.5 -43t-79 -16.5q-43 0 -79.5 16.5t-64.5 43t-44.5 64.5t-16.5 81zM273 808v259h645v-1067h-271v808h-374zM644 1383q0 43 16 81t44 64.5t64 42.5 t80 16q40 0 78 -16t66 -42.5t44 -64.5t16 -81t-16 -81t-44 -64.5t-66 -43t-78 -16.5q-44 0 -80 16.5t-64 43t-44 64.5t-16 81z" />
<glyph d="M245 808v259h709v-1497h-270v1238h-439zM611 1383q0 43 16 81t44 64.5t64.5 42.5t79.5 16q41 0 78.5 -16t65.5 -42.5t44.5 -64.5t16.5 -81t-16.5 -81t-44.5 -64.5t-65.5 -43t-78.5 -16.5q-43 0 -79.5 16.5t-64.5 43t-44 64.5t-16 81z" />
<glyph d="M172 1247v259h645v-1506h-271v1247h-374z" />
<glyph d="M74 808v259h476v-156h39q31 89 102.5 137t172.5 48q160 0 256.5 -99.5t96.5 -304.5v-47l-279 -25v29q0 88 -45.5 141t-135.5 53t-141.5 -62.5t-51.5 -178.5v-602h-271v808h-219z" />
<glyph d="M78 1067h292l266 -860h39l267 860h293l-353 -1067h-90v-236q0 -88 -53 -141t-142 -53h-437v258h302q58 0 59 65v107h-91z" />
<glyph d="M78 1067h292l266 -860h39l267 860h293l-353 -1067h-90v-236q0 -88 -53 -141t-142 -53h-437v258h302q58 0 59 65v107h-91zM546 1225l112 293h288l-181 -293h-219z" />
<glyph d="M78 1067h292l266 -860h39l267 860h293l-353 -1067h-90v-236q0 -88 -53 -141t-142 -53h-437v258h302q58 0 59 65v107h-91zM197 1383q0 43 16.5 81t44.5 64.5t64.5 42.5t79.5 16q41 0 79 -16t65.5 -42.5t44 -64.5t16.5 -81t-16.5 -81t-44 -64.5t-65.5 -43t-79 -16.5 q-43 0 -79.5 16.5t-64.5 43t-44.5 64.5t-16.5 81zM710 1383q0 43 16 81t44 64.5t64 42.5t80 16q40 0 78 -16t66 -42.5t44 -64.5t16 -81t-16 -81t-44 -64.5t-66 -43t-78 -16.5q-44 0 -80 16.5t-64 43t-44 64.5t-16 81z" />
<glyph d="M125 899v207h228l156 -61l16 34l-160 72l-156 156l144 144l156 -156l72 -160l34 16l-61 156v228h207v-228l-60 -156l34 -16l71 160l158 156l144 -144l-158 -156l-158 -72l14 -34l158 61h228v-207h-228l-158 60l-14 -34l158 -71l158 -157l-144 -145l-158 158l-71 158 l-34 -14l60 -157v-229h-207v229l61 157l-34 14l-72 -158l-156 -158l-144 145l156 157l160 71l-16 34l-156 -60h-228z" />
<glyph d="M43 8v1131q0 93 28 167.5t80 125t122.5 77t156.5 26.5h362q195 0 301.5 -96.5t106.5 -299.5v-817q0 -64 58 -64h41v-258h-207q-58 0 -99 30t-51 87h-39q-17 -62 -62 -104.5t-135 -42.5q-162 0 -234 133t-72 402v74q0 137 22.5 236t63.5 161t97.5 91t126.5 29 q69 0 119.5 -35t60.5 -97h39v171q0 69 -40 106t-115 37h-292q-88 0 -128 -43t-40 -139v-1027q0 -114 44 -177.5t167 -63.5h774v-258h-817q-215 0 -327 113.5t-112 324.5zM671 501q0 -142 31 -207.5t102 -65.5q70 0 97.5 50.5t27.5 138.5v232q0 88 -27.5 139t-97.5 51 q-71 0 -102 -65.5t-31 -207.5v-65z" />
<glyph d="M103 0v258h129v316h-129v259h129v221q0 234 127 357.5t349 123.5q111 0 204.5 -31t160 -92.5t103.5 -150.5t37 -207v-143h-271v152q0 100 -62.5 157.5t-163.5 57.5q-94 0 -153.5 -56t-59.5 -159v-230h219v-259h-219v-316h710v-258h-1110z" />
<glyph d="M26 464v246h128v78h-128v244h136q30 241 174 372t378 131q133 0 236.5 -38.5t173.5 -112t105 -176t35 -232.5v-12l-283 -39v51q0 54 -13.5 107.5t-43 96.5t-81 70.5t-129.5 27.5q-119 0 -184.5 -71.5t-84.5 -174.5h282v-244h-288v-78h288v-246h-282q17 -107 80.5 -171.5 t188.5 -64.5q82 0 134.5 24.5t81.5 66.5t40 97t11 113v52l283 -39v-13q0 -269 -140.5 -414t-409.5 -145q-232 0 -377.5 126t-174.5 368h-136z" />
<glyph d="M26 1506h301l311 -745h39l312 745h301l-314 -745h185v-244h-367v-78h367v-246h-367v-193h-271v193h-369v246h369v78h-369v244h186z" />
<glyph d="M78 521v64h271v-52q0 -109 49 -183.5t152 -104.5v422q-94 21 -171.5 55.5t-132.5 85t-86 120.5t-31 164v14q0 82 29 152.5t84 126.5t133.5 93.5t174.5 50.5v174h246v-181q99 -18 174 -62.5t127 -104.5t77.5 -133t25.5 -151v-78h-271v52q0 64 -35.5 118t-97.5 84v-365 q209 -47 319 -152.5t110 -282.5v-26q0 -181 -113.5 -299t-315.5 -143v-176h-246v176q-116 17 -205 64t-148 119t-89 163.5t-30 195.5zM400 1106q0 -54 34 -95t116 -71v324q-69 -17 -109.5 -56.5t-40.5 -101.5zM796 240q78 19 118 68t40 113q0 60 -34 107.5t-124 82.5v-371z " />
<glyph d="M35 404v232h275v232h-275v233h275v405h232v-405h232v405h232v-405h276v-233h-276v-232h276v-232h-276v-404h-232v404h-232v-404h-232v404h-275zM542 636h232v232h-232v-232z" />
<glyph d="M224 396v30h232v-26q0 -94 53 -152.5t164 -58.5q183 0 183 138q0 64 -43 99.5t-157 57.5q-180 33 -282.5 117t-102.5 238q0 51 12 95.5t33 80.5q-45 72 -45 167v14q0 82 30 145t82 106t122.5 65.5t152.5 22.5q101 0 179.5 -29t131.5 -77t79.5 -112.5t26.5 -138.5v-47 h-232v26q0 64 -41 111.5t-137 47.5q-74 0 -116 -32t-42 -88q0 -24 8 -44.5t31.5 -40t66.5 -35.5t111 -29q194 -35 281 -121.5t87 -228.5q0 -107 -38 -186q39 -69 38 -158v-18q0 -162 -108 -263.5t-309 -101.5q-111 0 -195 32.5t-141.5 89t-86 134t-28.5 170.5zM509 839 q0 -19 7 -40t29.5 -40t65 -35t113.5 -29q37 -6 65 -13t58 -17q2 6 2 23q0 55 -39.5 91t-153.5 58q-73 12 -139 36q-7 -13 -8 -34z" />
<glyph d="M125 1045v26q0 88 32 167.5t92.5 138.5t147.5 94t196 35h556v-1506h-233v1286h-91v-1286h-232v611h-12q-107 0 -191 34t-143.5 93.5t-90.5 139t-31 167.5zM357 1051q0 -56 18.5 -98t48.5 -68.5t67.5 -40t76.5 -13.5h25v455h-25q-39 0 -76.5 -14t-67.5 -41t-48.5 -69 t-18.5 -97v-14z" />
<glyph d="M64 400v706q0 211 113 320t305 109h353q191 0 304 -109.5t113 -319.5v-706q0 -211 -113 -320.5t-304 -109.5h-353q-191 0 -304.5 109.5t-113.5 320.5zM271 443q0 -129 59.5 -198t186.5 -69h283q127 0 186 69t59 198v620q0 129 -59 197.5t-186 68.5h-283 q-127 0 -186.5 -68.5t-59.5 -197.5v-620zM370 602v301q0 162 74.5 242t213.5 80q160 0 224 -79t64 -221v-86h-206v99q0 43 -18 68.5t-64 25.5q-45 0 -63.5 -25.5t-18.5 -68.5v-370q0 -43 18.5 -68.5t63.5 -25.5q46 0 64 25.5t18 68.5v99h206v-86q0 -142 -64.5 -222 t-223.5 -80q-139 0 -213.5 81t-74.5 242z" />
<glyph d="M64 400v706q0 211 113 320t305 109h353q191 0 304 -109.5t113 -319.5v-706q0 -211 -113 -320.5t-304 -109.5h-353q-191 0 -304.5 109.5t-113.5 320.5zM271 443q0 -129 59.5 -198t186.5 -69h283q127 0 186 69t59 198v620q0 129 -59 197.5t-186 68.5h-283 q-127 0 -186.5 -68.5t-59.5 -197.5v-620zM387 293v920h260q164 0 233.5 -69t69.5 -185q0 -97 -31 -147.5t-74 -74.5v-19q41 -10 60.5 -37t19.5 -84v-304h-207v271q0 26 -13 42t-42 16h-70v-329h-206zM593 815h43q50 0 79 24.5t29 81.5q0 51 -29 75t-79 24h-43v-205z" />
</font>
</defs>
</svg>
